<svg width="64" height="58" viewBox="0 0 64 58" fill="none" xmlns="http://www.w3.org/2000/svg">
<path d="M0 15C0 6.71573 6.71573 0 15 0H44V58H14C6.26801 58 0 51.732 0 44V15Z" fill="#333333"/>
<path fill-rule="evenodd" clip-rule="evenodd" d="M64 15.6316C64 14.4031 63.5241 13.2255 62.6751 12.3571C61.8273 11.4875 60.6777 11 59.4783 11C49.6356 11 26.3644 11 16.5217 11C15.3223 11 14.1727 11.4875 13.3249 12.3571C12.4759 13.2255 12 14.4031 12 15.6316C12 22.2802 12 34.4566 12 41.1053C12 42.3338 12.4759 43.5114 13.3249 44.3798C14.1727 45.2494 15.3223 45.7368 16.5217 45.7368H54.9565L64 55V15.6316Z" fill="#1EB9EA"/>
</svg>
