<svg width="128" height="128" viewBox="0 0 128 128" fill="none" xmlns="http://www.w3.org/2000/svg">
<path d="M128 15C128 6.71573 121.284 0 113 0H30.8966V128H114C121.732 128 128 121.732 128 114V15Z" fill="#FFD501"/>
<path d="M7.2872 26.4824H50.6438C54.6683 26.4824 57.931 29.7451 57.931 33.7696C57.931 37.7941 54.6683 41.0568 50.6438 41.0568H7.2872C3.26272 41.0568 0 37.7941 0 33.7696C0 29.7451 3.26248 26.4824 7.2872 26.4824ZM77.5848 103.724H7.2872C3.26272 103.724 0 100.461 0 96.4366C0 92.4121 3.26272 89.1494 7.2872 89.1494H77.5848C81.6093 89.1494 84.872 92.4121 84.872 96.4366C84.872 100.461 81.6095 103.724 77.5848 103.724ZM77.5848 72.3903H7.2872C3.26272 72.3903 0 69.1276 0 65.1031C0 61.0786 3.26272 57.8159 7.2872 57.8159H77.5848C81.6093 57.8159 84.872 61.0786 84.872 65.1031C84.872 69.1276 81.6095 72.3903 77.5848 72.3903Z" fill="#333333"/>
</svg>
