<svg width="160" height="303" viewBox="0 0 160 303" fill="none" xmlns="http://www.w3.org/2000/svg">
<path d="M74.5014 302.182H85.9375V275.773C131.21 273.297 159.859 245.827 159.859 209.278C159.859 174.381 132.743 157.05 96.6662 146.203L85.9375 143.02V40.6846C118.006 42.4531 139.699 62.3778 142.057 90.9091H156.558C154.672 55.1861 126.73 28.777 85.9375 27.0085V0.363618H74.5014V27.1264C35.1236 29.956 6.23864 55.7756 6.23864 90.9091C6.23864 120.384 26.517 139.837 64.3622 151.391L74.5014 154.456V261.979C41.0185 260.328 17.5568 242.054 15.3168 213.523H0.225854C2.7017 249.128 30.6435 274.004 74.5014 275.773V302.182ZM85.9375 261.861V157.875L92.5398 159.879C127.084 170.372 145.358 183.812 145.358 209.161C145.358 238.989 121.307 259.621 85.9375 261.861ZM74.5014 139.719L70.2571 138.422C41.1364 129.697 20.7401 115.432 20.7401 90.4375C20.7401 63.4389 42.7869 43.2784 74.5014 40.8025V139.719Z" fill="#14C26F"/>
</svg>
