<svg width="422" height="253" viewBox="0 0 422 253" fill="none" xmlns="http://www.w3.org/2000/svg">
<path d="M102.847 207.07L179.267 146.53" stroke="#CDCCCC" stroke-miterlimit="10"/>
<path d="M30.5 247L95.5 203" stroke="#CDCCCC" stroke-miterlimit="10"/>
<path d="M63.5 74.5L202 131.5" stroke="#CDCCCC" stroke-miterlimit="10"/>
<path d="M62 72.5L44.5 6" stroke="#CDCCCC" stroke-miterlimit="10"/>
<path d="M62 72.5L5.5 134.5" stroke="#CDCCCC" stroke-miterlimit="10"/>
<path d="M62 72.5L121.5 47" stroke="#CDCCCC" stroke-miterlimit="10"/>
<path d="M216.837 150.77L300.287 199.15" stroke="#CDCCCC" stroke-miterlimit="10"/>
<path d="M205.907 104.61L282.327 44.0703" stroke="#CDCCCC" stroke-miterlimit="10"/>
<path d="M339 34.5L371 72" stroke="#CDCCCC" stroke-miterlimit="10"/>
<path d="M299 41L339 34" stroke="#CDCCCC" stroke-miterlimit="10"/>
<path d="M322.837 188.53H321.767L321.637 185.41L320.367 153.22L320.237 150.1H320.457C320.73 150.12 321.004 150.12 321.277 150.1L321.397 153.22L322.687 185.44L322.837 188.53Z" fill="#CDCCCC"/>
<path d="M385.787 219.44C385.707 219.767 385.667 220.103 385.667 220.44L382.557 220.08L344.557 215.69L341.427 215.33C341.527 214.99 341.637 214.66 341.717 214.33L344.837 214.69L382.667 219.06L385.787 219.44Z" fill="#CDCCCC"/>
<path d="M393.067 147.221L391.067 149.151L341.367 196.221L339.297 198.221C339.127 197.961 338.947 197.701 338.757 197.451L340.807 195.501L390.347 148.501L392.347 146.561C392.566 146.803 392.807 147.023 393.067 147.221V147.221Z" fill="#CDCCCC"/>
<path d="M392.637 146.13C392.305 146.092 391.969 146.092 391.637 146.13L392.577 142.61L402.837 104.78L403.837 101.22C404.173 101.174 404.507 101.111 404.837 101.03L403.837 104.61L393.537 142.69L392.637 146.13Z" fill="#CDCCCC"/>
<path d="M30.7269 252.131C29.8334 252.134 28.9543 251.905 28.1758 251.466C27.3973 251.027 26.746 250.394 26.2858 249.628C25.8256 248.862 25.5722 247.99 25.5504 247.096C25.5286 246.203 25.7391 245.319 26.1614 244.532C26.5837 243.744 27.2033 243.08 27.9594 242.604C28.7156 242.128 29.5825 241.856 30.4751 241.816C31.3678 241.775 32.2557 241.967 33.0518 242.373C33.848 242.779 34.5251 243.384 35.0169 244.131C35.5861 244.976 35.8891 245.972 35.8869 246.991C35.8371 248.341 35.2768 249.623 34.3192 250.577C33.3616 251.531 32.0779 252.086 30.7269 252.131Z" fill="#CCCCCC"/>
<path d="M320.347 154.921C319.332 154.916 318.34 154.611 317.498 154.044C316.655 153.477 316 152.673 315.614 151.734C315.229 150.795 315.13 149.762 315.33 148.767C315.531 147.771 316.022 146.857 316.741 146.141C317.461 145.424 318.376 144.937 319.373 144.74C320.369 144.543 321.401 144.646 322.339 145.035C323.277 145.425 324.078 146.083 324.642 146.928C325.206 147.772 325.507 148.765 325.507 149.781C325.457 151.131 324.897 152.413 323.939 153.367C322.982 154.321 321.698 154.876 320.347 154.921V154.921Z" fill="#CCCCCC"/>
<path d="M390.137 153.89C389.244 153.893 388.364 153.664 387.586 153.226C386.807 152.787 386.156 152.154 385.696 151.388C385.236 150.622 384.982 149.75 384.961 148.856C384.939 147.963 385.149 147.079 385.572 146.292C385.994 145.504 386.613 144.84 387.37 144.364C388.126 143.888 388.993 143.616 389.885 143.576C390.778 143.535 391.666 143.727 392.462 144.133C393.258 144.539 393.935 145.144 394.427 145.89C395.002 146.733 395.306 147.731 395.297 148.75C395.247 150.101 394.687 151.383 393.729 152.336C392.772 153.29 391.488 153.846 390.137 153.89V153.89Z" fill="#CCCCCC"/>
<path d="M384.777 225.22C383.761 225.216 382.77 224.911 381.928 224.344C381.085 223.777 380.43 222.973 380.044 222.034C379.658 221.094 379.56 220.062 379.76 219.066C379.961 218.071 380.452 217.157 381.171 216.441C381.891 215.724 382.806 215.236 383.802 215.04C384.799 214.843 385.831 214.946 386.769 215.335C387.706 215.725 388.508 216.383 389.072 217.228C389.636 218.072 389.937 219.065 389.937 220.08C389.887 221.431 389.327 222.713 388.369 223.667C387.412 224.62 386.128 225.176 384.777 225.22V225.22Z" fill="#CCCCCC"/>
<path d="M338.757 39.3105C337.745 39.3022 336.758 38.9947 335.921 38.4268C335.083 37.8588 334.432 37.0558 334.05 36.1188C333.668 35.1817 333.572 34.1526 333.774 33.161C333.975 32.1694 334.466 31.2596 335.183 30.5461C335.901 29.8327 336.814 29.3475 337.806 29.1516C338.799 28.9558 339.828 29.0581 340.763 29.4456C341.697 29.8331 342.497 30.4885 343.06 31.3292C343.623 32.17 343.924 33.1586 343.927 34.1705C343.875 35.5221 343.312 36.8038 342.353 37.7574C341.394 38.7111 340.109 39.266 338.757 39.3105V39.3105Z" fill="#CCCCCC"/>
<path d="M44.317 10.3C43.3001 10.296 42.3072 9.99111 41.4633 9.4237C40.6195 8.8563 39.9625 8.05178 39.5752 7.11156C39.1879 6.17134 39.0876 5.13751 39.287 4.14037C39.4863 3.14324 39.9764 2.22744 40.6954 1.5084C41.4144 0.789369 42.3303 0.299289 43.3274 0.0999378C44.3245 -0.0994132 45.3584 0.000887692 46.2986 0.388197C47.2388 0.775507 48.0433 1.43249 48.6107 2.27633C49.1781 3.12017 49.483 4.1131 49.487 5.12996C49.4397 6.48609 48.8798 7.7738 47.9203 8.73331C46.9608 9.69282 45.6731 10.2527 44.317 10.3V10.3Z" fill="#CCCCCC"/>
<path d="M5.20706 138.7C4.31021 138.707 3.42713 138.48 2.64458 138.041C1.86204 137.603 1.20694 136.969 0.743655 136.201C0.280369 135.433 0.0248305 134.558 0.00214301 133.661C-0.0205445 132.765 0.1904 131.877 0.614253 131.087C1.03811 130.297 1.66029 129.63 2.41967 129.153C3.17906 128.676 4.04952 128.404 4.94555 128.365C5.84157 128.326 6.73234 128.521 7.53034 128.93C8.32833 129.34 9.0061 129.95 9.49707 130.7C10.071 131.547 10.3744 132.548 10.3671 133.57C10.3147 134.919 9.75337 136.198 8.79601 137.15C7.83865 138.102 6.55632 138.656 5.20706 138.7V138.7Z" fill="#CCCCCC"/>
<path d="M121.997 51.0795C120.979 51.0697 119.986 50.7587 119.144 50.1857C118.302 49.6128 117.649 48.8035 117.266 47.8598C116.883 46.9161 116.788 45.8802 116.993 44.8826C117.197 43.8849 117.693 42.9702 118.416 42.2535C119.14 41.5369 120.059 41.0504 121.059 40.8553C122.058 40.6602 123.093 40.7653 124.033 41.1573C124.973 41.5493 125.776 42.2106 126.341 43.058C126.906 43.9055 127.207 44.9011 127.207 45.9195C127.162 47.2822 126.597 48.5757 125.628 49.5351C124.659 50.4946 123.36 51.0471 121.997 51.0795V51.0795Z" fill="#CCCCCC"/>
<path d="M95.337 235.22C102.532 235.218 109.503 232.721 115.064 228.156C120.625 223.59 124.43 217.238 125.833 210.181C127.235 203.125 126.147 195.8 122.755 189.455C119.362 183.11 113.875 178.138 107.228 175.386C100.58 172.633 93.184 172.27 86.2992 174.359C79.4144 176.448 73.4669 180.86 69.4698 186.842C65.4728 192.824 63.6736 200.007 64.3788 207.168C65.0839 214.328 68.2498 221.022 73.337 226.11C76.2259 228.999 79.6558 231.29 83.4306 232.853C87.2055 234.417 91.2513 235.221 95.337 235.22V235.22Z" fill="#F5F5F5"/>
<path d="M80.5172 197.8C80.5159 196.906 80.6907 196.02 81.0318 195.194C81.3728 194.367 81.8733 193.615 82.5047 192.982C83.1362 192.349 83.8862 191.846 84.7119 191.503C85.5376 191.159 86.4229 190.982 87.3172 190.98H100.527V217.34H86.8872C85.1975 217.339 83.5766 216.671 82.3772 215.48C81.7832 214.892 81.3127 214.191 80.9933 213.418C80.6739 212.645 80.5121 211.817 80.5172 210.98V197.8Z" fill="#333333"/>
<path fill-rule="evenodd" clip-rule="evenodd" d="M109.637 198.08C109.633 197.529 109.419 196.999 109.037 196.6C108.844 196.407 108.617 196.251 108.367 196.14C108.117 196.034 107.848 195.98 107.577 195.98H88.0368C87.7653 195.98 87.4965 196.034 87.2468 196.14C86.9954 196.254 86.7654 196.409 86.5668 196.6C86.1851 196.999 85.9704 197.529 85.9668 198.08V209.66C85.9678 210.216 86.1827 210.749 86.5668 211.15C86.761 211.347 86.9921 211.503 87.2468 211.61C87.4976 211.713 87.7657 211.768 88.0368 211.77H105.517L109.637 215.98V198.08Z" fill="#1EB9EA"/>
<path d="M279.183 64.44C286.176 64.4487 292.957 62.0313 298.368 57.6C303.778 53.1686 307.485 46.9977 308.855 40.1394C310.225 33.281 309.173 26.1598 305.88 19.9899C302.587 13.8199 297.255 8.98327 290.795 6.30452C284.334 3.62577 277.145 3.27078 270.452 5.30006C263.759 7.32934 257.977 11.6173 254.092 17.4328C250.207 23.2483 248.459 30.2313 249.146 37.1912C249.834 44.1512 252.915 50.6572 257.862 55.6C263.52 61.2513 271.186 64.43 279.183 64.44V64.44Z" fill="#F5F5F5"/>
<path d="M321.867 241.77C328.056 241.76 334.104 239.916 339.246 236.471C344.387 233.026 348.393 228.134 350.756 222.413C353.118 216.692 353.733 210.4 352.521 204.33C351.309 198.26 348.325 192.686 343.947 188.311C339.568 183.937 333.991 180.958 327.921 179.751C321.85 178.545 315.558 179.164 309.839 181.532C304.121 183.9 299.232 187.909 295.791 193.054C292.35 198.199 290.511 204.248 290.507 210.437C290.377 227.62 304.677 241.77 321.867 241.77Z" fill="#F5F5F5"/>
<path d="M321.877 193.92C325.986 193.919 329.948 195.446 332.993 198.205C336.038 200.963 337.948 204.756 338.351 208.845C338.755 212.933 337.623 217.026 335.176 220.327C332.729 223.627 329.142 225.899 325.112 226.701C321.082 227.504 316.899 226.778 313.374 224.666C309.85 222.554 307.237 219.207 306.044 215.275C304.851 211.344 305.163 207.109 306.92 203.395C308.676 199.68 311.751 196.752 315.547 195.18C317.554 194.349 319.705 193.92 321.877 193.92ZM321.877 200.52C319.576 200.514 317.344 201.306 315.562 202.761C313.78 204.217 312.558 206.245 312.105 208.501C311.651 210.757 311.995 213.1 313.076 215.131C314.157 217.162 315.91 218.755 318.034 219.638C320.159 220.522 322.524 220.64 324.727 219.975C326.929 219.309 328.832 217.899 330.112 215.987C331.391 214.074 331.967 211.777 331.742 209.487C331.517 207.197 330.504 205.057 328.877 203.43C327.02 201.573 324.503 200.527 321.877 200.52Z" fill="black"/>
<path d="M321.747 212.27C322.143 212.27 322.529 212.152 322.858 211.932C323.187 211.713 323.443 211.4 323.595 211.035C323.746 210.669 323.786 210.267 323.709 209.879C323.631 209.491 323.441 209.135 323.161 208.855C322.882 208.576 322.525 208.385 322.137 208.308C321.749 208.231 321.347 208.27 320.982 208.422C320.616 208.573 320.304 208.829 320.084 209.158C319.864 209.487 319.747 209.874 319.747 210.27C319.747 210.8 319.958 211.309 320.333 211.684C320.708 212.059 321.217 212.27 321.747 212.27Z" fill="black"/>
<path d="M393.037 111.09C399.658 111.097 406.076 108.808 411.198 104.612C416.32 100.416 419.828 94.5737 421.124 88.0809C422.42 81.588 421.424 74.8466 418.306 69.0058C415.188 63.1651 410.14 58.5867 404.024 56.0512C397.908 53.5156 391.101 53.1799 384.765 55.1012C378.429 57.0225 372.956 61.0819 369.278 66.5874C365.6 72.0929 363.945 78.7036 364.596 85.2925C365.247 91.8814 368.163 98.0406 372.847 102.72C378.204 108.072 385.464 111.082 393.037 111.09V111.09Z" fill="#F5F5F5"/>
<path d="M406.927 75.8399C406.922 73.9365 406.162 72.1128 404.814 70.7688C403.466 69.4247 401.64 68.6699 399.737 68.6699H385.857V96.4099H400.267C401.146 96.4118 402.016 96.2384 402.827 95.8999C404.467 95.2185 405.771 93.9176 406.457 92.2799C406.79 91.4638 406.963 90.5913 406.967 89.7099L406.927 75.8399Z" fill="#FFD501"/>
<path d="M380.737 74.4099H390.137C390.346 74.4091 390.554 74.4499 390.747 74.5299C390.936 74.6123 391.108 74.7274 391.257 74.8699C391.402 75.0182 391.521 75.1908 391.607 75.3799C391.678 75.5755 391.715 75.7818 391.717 75.9899C391.715 76.1947 391.678 76.3978 391.607 76.5899C391.525 76.7841 391.406 76.9607 391.257 77.1099C391.108 77.2523 390.936 77.3674 390.747 77.4499C390.554 77.5299 390.346 77.5707 390.137 77.5699H380.737C380.531 77.5707 380.327 77.5299 380.137 77.4499C379.943 77.3714 379.767 77.2559 379.617 77.1099C379.469 76.962 379.353 76.7849 379.277 76.5899C379.197 76.4 379.156 76.1959 379.157 75.9899C379.157 75.568 379.322 75.163 379.618 74.8619C379.913 74.5608 380.315 74.3877 380.737 74.3799V74.4099ZM395.977 91.1499H380.737C380.318 91.1499 379.916 90.9834 379.62 90.6871C379.323 90.3908 379.157 89.9889 379.157 89.5699C379.157 89.1508 379.323 88.749 379.62 88.4527C379.916 88.1563 380.318 87.9899 380.737 87.9899H395.977C396.396 87.9899 396.798 88.1563 397.094 88.4527C397.391 88.749 397.557 89.1508 397.557 89.5699C397.557 89.9889 397.391 90.3908 397.094 90.6871C396.798 90.9834 396.396 91.1499 395.977 91.1499V91.1499ZM395.977 84.3599H380.737C380.318 84.3599 379.916 84.1934 379.62 83.8971C379.323 83.6008 379.157 83.1989 379.157 82.7799C379.157 82.3608 379.323 81.959 379.62 81.6627C379.916 81.3663 380.318 81.1999 380.737 81.1999H395.977C396.396 81.1999 396.798 81.3663 397.094 81.6627C397.391 81.959 397.557 82.3608 397.557 82.7799C397.557 83.1989 397.391 83.6008 397.094 83.8971C396.798 84.1934 396.396 84.3599 395.977 84.3599V84.3599Z" fill="#333333"/>
<path d="M203.267 169.58C212.243 169.591 220.946 166.488 227.891 160.801C234.836 155.114 239.593 147.194 241.352 138.392C243.111 129.59 241.763 120.45 237.538 112.53C233.312 104.61 226.471 98.4014 218.18 94.9614C209.889 91.5215 200.661 91.0634 192.07 93.6655C183.479 96.2675 176.057 101.768 171.068 109.231C166.079 116.693 163.832 125.655 164.711 134.588C165.59 143.521 169.54 151.873 175.887 158.22C183.15 165.482 192.996 169.567 203.267 169.58V169.58Z" fill="#F5F5F5"/>
<path d="M197.047 113.63L192.677 111.11C192.146 110.801 191.542 110.638 190.927 110.638C190.312 110.638 189.709 110.801 189.177 111.11C188.377 111.59 185.367 113.31 184.857 113.61C184.328 113.912 183.888 114.348 183.583 114.875C183.277 115.402 183.117 116.001 183.117 116.61V121.61C183.123 122.21 183.281 122.798 183.577 123.32C183.873 123.841 184.3 124.276 184.817 124.58C185.337 124.89 188.397 126.64 189.207 127.11C189.735 127.419 190.335 127.582 190.947 127.582C191.559 127.582 192.16 127.419 192.687 127.11L197.027 124.61C197.554 124.306 197.991 123.868 198.295 123.342C198.598 122.815 198.758 122.218 198.757 121.61V116.61C198.76 116.007 198.605 115.414 198.307 114.89C197.999 114.371 197.566 113.938 197.047 113.63V113.63ZM194.897 120.4C194.894 120.706 194.811 121.006 194.657 121.271C194.502 121.536 194.282 121.756 194.017 121.91L191.827 123.22C191.559 123.372 191.256 123.452 190.947 123.452C190.639 123.452 190.335 123.372 190.067 123.22L187.847 121.94C187.573 121.762 187.352 121.513 187.207 121.22C187.056 120.955 186.976 120.655 186.977 120.35V117.81C186.979 117.505 187.058 117.206 187.207 116.94C187.356 116.671 187.578 116.449 187.847 116.3L190.037 115.04C190.303 114.882 190.608 114.799 190.917 114.8C191.229 114.8 191.535 114.879 191.807 115.03C192.207 115.27 193.807 116.15 194.007 116.31C194.274 116.458 194.495 116.676 194.647 116.94C194.796 117.206 194.875 117.505 194.877 117.81V120.36L194.897 120.4Z" fill="#FF8000"/>
<path d="M199.477 134.14V151.14H182.477V134.14H199.477ZM186.267 137.91V147.34H195.707V137.91H186.267Z" fill="#FFD501"/>
<path d="M214.537 134.14C216.642 134.144 218.67 134.931 220.227 136.348C221.784 137.765 222.758 139.71 222.96 141.806C223.162 143.901 222.578 145.996 221.32 147.685C220.063 149.373 218.223 150.533 216.158 150.94C214.092 151.347 211.949 150.971 210.146 149.885C208.342 148.8 207.007 147.082 206.4 145.067C205.792 143.051 205.956 140.882 206.86 138.981C207.763 137.079 209.341 135.582 211.287 134.78C212.319 134.358 213.423 134.141 214.537 134.14ZM214.537 137.53C213.187 137.568 211.908 138.141 210.98 139.123C210.053 140.105 209.554 141.415 209.592 142.765C209.631 144.115 210.204 145.394 211.186 146.321C212.167 147.249 213.477 147.748 214.827 147.71C215.229 147.695 215.629 147.634 216.017 147.53C217.22 147.203 218.261 146.447 218.943 145.404C219.625 144.362 219.901 143.105 219.718 141.872C219.536 140.64 218.908 139.517 217.953 138.717C216.998 137.916 215.783 137.494 214.537 137.53V137.53Z" fill="#1271D8"/>
<path d="M223.977 127.53H204.567L214.267 110.66L223.977 127.53ZM210.407 124.16H218.137L214.267 117.43L210.407 124.16Z" fill="#00D478"/>
<path d="M61.7372 103.9C68.9107 103.905 75.8638 101.422 81.4114 96.8741C86.959 92.3262 90.7576 85.9951 92.1599 78.96C93.5621 71.9249 92.4811 64.6212 89.1011 58.2939C85.7211 51.9666 80.2514 47.0074 73.6242 44.2615C66.9971 41.5155 59.6228 41.153 52.7582 43.2355C45.8937 45.318 39.9639 49.7168 35.9795 55.682C31.9951 61.6472 30.2028 68.8096 30.9081 75.9483C31.6133 83.087 34.7726 89.7602 39.8472 94.8304C45.655 100.633 53.5274 103.895 61.7372 103.9Z" fill="#F5F5F5"/>
<path d="M77.5972 66.1402C77.6031 65.0603 77.3953 63.9898 76.9857 62.9906C76.5761 61.9914 75.9728 61.0831 75.2106 60.3181C74.4483 59.553 73.5422 58.9464 72.5445 58.5332C71.5468 58.1199 70.4771 57.9082 69.3972 57.9102H54.0672C52.9917 57.9089 51.9264 58.1194 50.9323 58.5298C49.9381 58.9401 49.0345 59.5423 48.2731 60.3019C47.5116 61.0615 46.9073 61.9636 46.4945 62.9568C46.0817 63.9499 45.8685 65.0146 45.8672 66.0902V79.7702C45.8652 80.8476 46.076 81.9147 46.4874 82.9105C46.8987 83.9063 47.5027 84.811 48.2645 85.5729C49.0264 86.3347 49.9311 86.9386 50.9269 87.35C51.9226 87.7614 52.9898 87.9721 54.0672 87.9702H69.3972C70.4727 87.9715 71.538 87.7609 72.5321 87.3506C73.5263 86.9402 74.4299 86.338 75.1913 85.5784C75.9528 84.8189 76.5572 83.9167 76.9699 82.9236C77.3827 81.9304 77.5959 80.8657 77.5972 79.7902V66.1402Z" fill="#FF8000"/>
<path d="M62.0068 74.3398L52.4268 65.5898H71.5868L62.0068 74.3398Z" fill="white"/>
<path fill-rule="evenodd" clip-rule="evenodd" d="M271.759 19C267.474 19 264 22.4737 264 26.7586V41.2414C264 45.5263 267.474 49 271.759 49H286.241C290.526 49 294 45.5263 294 41.2414V26.7586C294 22.4737 290.526 19 286.241 19H271.759ZM274.862 27.2759C273.434 27.2759 272.276 28.4337 272.276 29.8621V38.6552C272.276 40.0835 273.434 41.2414 274.862 41.2414H283.655C285.083 41.2414 286.241 40.0835 286.241 38.6552V29.8621C286.241 28.4337 285.083 27.2759 283.655 27.2759H274.862Z" fill="#00D478"/>
</svg>
