<svg width="128" height="103" viewBox="0 0 128 103" fill="none" xmlns="http://www.w3.org/2000/svg">
<path d="M121.554 27.1135C124.183 25.0818 128 26.9559 128 30.2786L128 71.2499C128 74.5726 124.183 76.4467 121.554 74.415L95.0433 53.9294C92.971 52.3281 92.971 49.2004 95.0433 47.5991L121.554 27.1135Z" fill="black"/>
<path d="M107.789 15.2373C107.789 6.95305 101.074 0.237305 92.7893 0.237305H14.9998C6.71548 0.237305 -0.000244141 6.95303 -0.000244141 15.2373V87.4515C-0.000244141 95.7358 6.71548 102.452 14.9998 102.452H92.7893C101.074 102.452 107.789 95.7358 107.789 87.4515V15.2373Z" fill="#1271D8"/>
<path fill-rule="evenodd" clip-rule="evenodd" d="M35.529 35.5138C36.5515 29.5523 41.6639 27.5084 43.368 27.3381C44.9017 27.1677 46.0946 26.4864 47.7987 30.404C49.3324 34.3215 51.3774 39.7719 51.3774 39.7719C51.3774 39.7719 51.5478 40.7939 50.5253 41.9862C49.5028 43.3488 47.6283 45.2224 47.6283 45.2224C47.6283 45.2224 47.1171 46.2443 47.6283 47.096C49.6733 51.1838 57.001 58.3375 60.9205 60.5518C61.9429 61.0627 62.795 60.3814 62.795 60.3814C62.795 60.3814 64.84 58.5078 66.0328 57.4859C67.3961 56.4639 68.4186 56.8046 68.4186 56.8046C68.4186 56.8046 73.7014 58.6782 77.6209 60.3814C81.5404 61.9144 80.8587 63.1067 80.6883 64.8099C80.6883 66.3429 78.6434 71.4527 72.5085 72.4746C57.8531 75.0295 33.1433 50.3322 35.529 35.5138Z" fill="white"/>
</svg>
