<svg width="127" height="127" viewBox="0 0 127 127" fill="none" xmlns="http://www.w3.org/2000/svg">
<path fill-rule="evenodd" clip-rule="evenodd" d="M98.785 10.7059C88.344 3.72765 76.0683 0.00199813 63.5101 8.00649e-07C55.1695 -0.00132363 46.9103 1.64052 39.2043 4.83173C31.4983 8.02294 24.4964 12.701 18.5987 18.5987C12.701 24.4964 8.02291 31.4983 4.83169 39.2043C1.64048 46.9103 -0.00132367 55.1695 8.00714e-07 63.5101C0.0019981 76.0684 3.72765 88.344 10.7059 98.785C17.6841 109.226 27.6016 117.363 39.2043 122.168C50.807 126.973 63.5739 128.23 75.8907 125.779C88.2076 123.329 99.5213 117.281 108.401 108.401C117.281 99.5212 123.329 88.2076 125.779 75.8907C128.23 63.5739 126.973 50.807 122.168 39.2043C117.363 27.6016 109.226 17.6841 98.785 10.7059ZM42.344 31.8126C48.6092 27.6263 55.975 25.3919 63.5101 25.3919C73.6143 25.3919 83.3047 29.4058 90.4494 36.5506C97.5942 43.6953 101.608 53.3857 101.608 63.4899C101.608 71.025 99.3737 78.3908 95.1874 84.656C91.0011 90.9212 85.051 95.8043 78.0896 98.6879C71.1281 101.571 63.4678 102.326 56.0775 100.856C48.6873 99.3858 41.8988 95.7574 36.5707 90.4293C31.2426 85.1012 27.6142 78.3127 26.1441 70.9224C24.6741 63.5322 25.4286 55.8719 28.3121 48.9104C31.1957 41.9489 36.0788 35.9989 42.344 31.8126ZM63.5 72.0298C68.2109 72.0298 72.0299 68.2109 72.0299 63.5C72.0299 58.7891 68.2109 54.9701 63.5 54.9701C58.7891 54.9701 54.9701 58.7891 54.9701 63.5C54.9701 68.2109 58.7891 72.0298 63.5 72.0298Z" fill="black"/>
</svg>
