<svg xmlns="http://www.w3.org/2000/svg" width="2442.351" height="1884.795" viewBox="0 0 2442.351 1884.795">
  <g id="Group_1" data-name="Group 1" transform="translate(-3014.461 -1620.052)">
    <path id="path426" d="M3309.805-915.238s-49.28,22.4-76.68,71.013-33.013,115.92-33.013,115.92l84.266.853s-51.507-63.906,25.427-187.786" transform="translate(857 3801.327)" fill="#eafdf7"/>
    <path id="path428" d="M4491.349-301.479c0-2.762-3.827-5-8.547-5H2167.821c-5.72,0-10.36,2.238-10.36,5s4.64,5,10.36,5H4482.8c4.72,0,8.547-2.238,8.547-5" transform="translate(857 3801.327)" fill="#2c2c2c"/>
    <path id="path434" d="M3453.1-1277.464l-32.12,21.44,17.96,31.187-30.707,22.52,13.493,31.933-20.24,20.613,10.44,10.227,27.053-27.56-12.787-30.253,31.96-23.427-17.68-30.68,29.12-19.427-16.493-6.573" transform="translate(857 3801.327)" fill="#ffb972"/>
    <path id="path436" d="M3668.311-1115.237l-37.24-10.253-11.826,34-37.12-8.493-15.32,31.093-28.813-1.8-.92,14.587,38.546,2.427,14.507-29.48,38.627,8.84,11.64-33.44,33.747,9.293-5.827-16.773" transform="translate(857 3801.327)" fill="#ffb972"/>
    <path id="path438" d="M2696.66-2125.568l-20.386-32.8-31.76,16.947-21.52-31.427-32.346,12.467-19.947-20.893-10.573,10.093,26.68,27.947,30.653-11.813,22.387,32.693,31.226-16.667,18.48,29.72,7.107-16.267" transform="translate(857 3801.327)" fill="#ffb972"/>
    <path id="path440" d="M3526.1-945.184l14.693,27.467,31.72-1.773,14.307,31.947L3620-899.864l17.773,35.413,31.96-7.56,22.68,31.28-11.84,8.573-16.947-23.373-33.733,7.973-17.08-34.04-33.76,12.507-15.787-35.24-30.96,1.72-13.64-25.44-20.093,5.387-3.787-14.12,31.307-8.4" transform="translate(857 3801.327)" fill="#ffb972"/>
    <path id="path442" d="M3152.9-847.745l-23.4,2.373-7.987-37.24-34.653-.747-10.533-26.893-13.613,5.333,14.094,35.96,32.84.707,8.293,38.747,35.226-3.573-.267-14.667" transform="translate(857 3801.327)" fill="#6be4ee"/>
    <path id="path444" d="M4031.03-2035.5l-8.76,21.84-36.693-10.213-16.747,30.347-28.707-3.16-1.6,14.533,38.4,4.227,15.867-28.76,38.173,10.627,13.187-32.867-13.12-6.573" transform="translate(539.801 3922.58)" fill="#6be4ee"/>
    <path id="path446" d="M3528-572.545c14.28-18.253,46.826-44.92,53.866-50.587,6.28,6.413,15.733,25.32,16.987,33.867C3589.858-587.412,3550.845-575.305,3528-572.545Zm53.546-61.347c-10.826,2.133-54.093,60.106-54.093,60.106l-1.533,4.013s78.28-8.707,81.12-12.053c7.653-9.027-16.6-53.813-25.493-52.067" transform="translate(857 3801.327)" fill="#f6b5b9"/>
    <path id="path448" d="M3438.578-591.292c-4.733-4.707,7.04-24.373,12.413-28.547,1.373-.773,55.947,33.96,63.56,45.813-30.467-3.293-71.573-13.347-75.973-17.267ZM3476.685-624c-21.293-13.893-27.147-13.787-33.347-10.267s-29.08,36.347-18.853,46.587,91.346,17.547,91.346,17.547l1.826-4.96s-19.68-35.013-40.973-48.906" transform="translate(857 3801.327)" fill="#f6b5b9"/>
    <path id="path450" d="M3516.471-554.745h4.573a8.188,8.188,0,0,0,8.187-8.187v-13.44a8.188,8.188,0,0,0-8.187-8.187h-4.573a8.188,8.188,0,0,0-8.187,8.187v13.44a8.188,8.188,0,0,0,8.187,8.187" transform="translate(857 3801.327)" fill="#f6b5b9"/>
    <path id="path452" d="M3689.524-569.519l-371.106-1.12a16.12,16.12,0,0,0-15.973,18.533l5.747,37.867,18.6-.04L3338-323.706a19.286,19.286,0,0,0,19.253,18.16h296.2l12.32-209.426,17.52-.04,6.227-54.507" transform="translate(857 3801.327)" fill="#392054"/>
    <path id="path454" d="M3659.791-305.546H3432.432l-12.174-260.026h270.133l-11.333,241.946a19.134,19.134,0,0,1-19.267,18.08" transform="translate(857 3801.327)" fill="#6e5c82"/>
    <path id="path456" d="M3701.537-514.892l-293.239.787-6.693-56.427,287.266,1.107a16.088,16.088,0,0,1,15.973,17.533l-3.307,37" transform="translate(857 3801.327)" fill="#807092"/>
    <path id="path458" d="M3408.3-514.105l279.692-.787-270.826,14.787Z" transform="translate(857 3801.327)" fill="#392054"/>
    <path id="path460" d="M3526.125-514.372h-7.787v-55.72h7.787v55.72" transform="translate(857 3801.327)" fill="#f6b5b9"/>
    <path id="path462" d="M3550.632-305.159h-9.72V-514.625h9.72v209.466" transform="translate(857 3801.327)" fill="#f6b5b9"/>
    <path id="path464" d="M3361.859-305.559h-300.92v-389.6h300.92v389.6" transform="translate(857 3801.327)" fill="#eebcbf"/>
    <path id="path466" d="M3108.672-305.559h-10.893v-389.6h10.893v389.6" transform="translate(857 3801.327)" fill="#ee7980"/>
    <path id="path468" d="M3140.846-305.559h-10.893v-389.6h10.893v389.6" transform="translate(857 3801.327)" fill="#ee7980"/>
    <path id="path470" d="M3173.006-305.559h-10.893v-389.6h10.893v389.6" transform="translate(857 3801.327)" fill="#ee7980"/>
    <path id="path472" d="M3205.179-305.559h-10.893v-389.6h10.893v389.6" transform="translate(857 3801.327)" fill="#ee7980"/>
    <path id="path474" d="M3237.339-305.559h-10.893v-389.6h10.893v389.6" transform="translate(857 3801.327)" fill="#ee7980"/>
    <path id="path476" d="M3269.512-305.559h-10.893v-389.6h10.893v389.6" transform="translate(857 3801.327)" fill="#ee7980"/>
    <path id="path478" d="M3301.672-305.559h-10.893v-389.6h10.893v389.6" transform="translate(857 3801.327)" fill="#ee7980"/>
    <path id="path480" d="M3333.845-305.559h-10.893v-389.6h10.893v389.6" transform="translate(857 3801.327)" fill="#ee7980"/>
    <path id="path482" d="M3361.845-679.1H3060.953v-16.067h300.893V-679.1" transform="translate(857 3801.327)" fill="#ee7980"/>
    <path id="path484" d="M2914.74-802.558c-28.787-2.44-78.8-18.213-89.507-21.693,2.4-10.92,15.667-33.693,23.733-40.813,8.067,8.12,47.306,40.573,65.773,62.506Zm-100.52-14.027c9.613,9.853,99.6,15.453,99.6,15.453l5.227-1.147s-62.466-75.733-67.893-76.413c-14.64-1.827-44.826,54.027-36.933,62.106" transform="translate(857 3801.327)" fill="#eebcbf"/>
    <path id="path486" d="M2956.179-696.465c-1.693,8.147-30.24,9.267-38.253,6.52-1.746-.907-2.733-81.533,4.44-97.56C2939.713-753.478,2957.259-703.732,2956.179-696.465Zm-60.12-17.453c.027,31.693,4.134,37.72,12.04,41.787s57.76,5.56,61.467-12.093-44.013-107.266-44.013-107.266l-6.413,1.467s-23.107,44.413-23.08,76.106" transform="translate(857 3801.327)" fill="#eebcbf"/>
    <path id="path488" d="M2941.166-802.665l-3.107-4.76a10.206,10.206,0,0,0-14.134-2.96l-14.013,9.16a10.214,10.214,0,0,0-2.96,14.133l3.12,4.76a10.214,10.214,0,0,0,14.133,2.96l14-9.16a10.205,10.205,0,0,0,2.96-14.133" transform="translate(857 3801.327)" fill="#eebcbf"/>
    <path id="path490" d="M2831.073-965.944,3000.433-661.2l60.76-33.773-169.36-304.746-60.76,33.773" transform="translate(857 3801.327)" fill="#ee7980"/>
    <path id="path492" d="M3017.8-1511.192a83.383,83.383,0,0,1,2.457,117.889,83.368,83.368,0,0,1-117.89,2.457,83.368,83.368,0,0,1-2.474-117.889,83.389,83.389,0,0,1,117.907-2.457" transform="translate(799.313 3742.402)" fill="#fffdf2"/>
    <path id="path502" d="M2591.18-661.625c-17.96,26.707-38.467,48.2-41.053,50.653-1.253,1.173-9.586,3.853-10.907,5.04-11.693,36.96,3.347,68.373,19.453,93.093,2.68-20.04,4.6-47.413,7.667-50.8,4.907-5.387,21.667-28.493,55.493-56.987-17.853-10.04-19.987-23.653-30.653-41" transform="translate(857 3801.327)" fill="#fde9d8"/>
    <path id="path504" d="M2549.14-610.359c-13.213.787-38.227,9.053-38.08,11.68.173,3.147,14.333,112.146,31.546,121.733,10.36,5.773,12.28-11.187,16.067-35.907-16.12-24.72-16.893-91.213-9.533-97.506" transform="translate(857 3801.327)" fill="#2c2c2c"/>
    <path id="path506" d="M2317.288-712.572c-27.627,16.52-55.026,29.027-58.427,30.147-1.627.533-10.307-.6-12.013-.093-26.307,28.48-26.08,63.293-22.027,92.52,10.947-16.987,24.347-40.947,28.573-42.693,6.72-2.787,31.067-13.373,73.8-24.76-11.88-16.667-7.627-34.893-9.907-55.12" transform="translate(857 3801.327)" fill="#fde9d8"/>
    <path id="path508" d="M2619.687-1446.2s41.787-78.613,47.96-106.773,27.6-169.946,25.8-179.079-35.68-31.107-31.493-38.867,36.427-7.773,43.813-7.107,22.227,4.973,28.587,10.213-7.147,175.16-11.174,211.733-65.28,156.44-65.28,156.44l-38.213-46.56" transform="translate(857 3801.327)" fill="#fde9d8"/>
    <path id="path510" d="M2431.914-1332.583s-85.146,136.346-100.013,163.146-70.293,95.053-73.08,98.346-61.413.307-59.733,7.107,28.6.08,29.107,8.053-46.333,58.64-41.64,60.68c8.773,3.827,29.84-29.92,33.6-27.36s-25.213,33.2-20.493,39.733,24.76-31.56,28.507-31.107-14.08,38.333-5.893,38.707c4.453.2,15.067-34.067,19.293-31.04s.16,30.467,5.32,30.2.347-23.44,8.253-35.667,7.374-25.107,25.56-40.906,88.733-63.973,114.293-106.533,82.293-136.426,82.293-136.426l-45.373-36.933" transform="translate(857 3801.327)" fill="#fde9d8"/>
    <path id="path512" d="M2635.38-1129.757l-147.879,47.64s81.346,138.32,97.426,165.893,85.333,95.653,85.426,113.466c.067,12.613-65.187,96.2-104.533,147.2,8.88,16.533,33.187,37.8,48.573,47.227,65.52-62.12,161.093-160.053,162.853-192.16,2.56-46.893-141.867-329.266-141.867-329.266" transform="translate(857 3801.327)" fill="#03c06e"/>
    <path id="path514" d="M2257.648-682.292c-12.293-4.907-38.347-8.08-39.333-5.64-1.174,2.92-34.773,107.573-23.28,123.586,6.92,9.627,15.867-4.907,29.826-25.653-4.067-29.227,24.6-91.573,32.787-92.293" transform="translate(857 3801.327)" fill="#2c2c2c"/>
    <path id="path516" d="M2605.06-1044.411c1.88-9.107,14.066-35.867,20.36-57.173a116.946,116.946,0,0,0,2.8-54.387l-108.773-5.067-4.173,8.093a65.376,65.376,0,0,1-18.654,22.333c-16.293,12.32-44.867,39.347-44,76.946,1.2,52.493,38.547,244.866,26.133,252.066-22.413,12.987-115.933,58.48-171.759,86.48.773,20.333,6.467,49.307,17.08,66.813,44.213-16.92,199.786-85.786,228.719-102.666,13.067-7.613,49.053-277.959,52.267-293.439" transform="translate(857 3801.327)" fill="#00d478"/>
    <path id="path518" d="M2342.248-1656.556c8.627,22.8-5.026,39.787-14.52,62.24-6.36,15.067,7.68,38.987,23.56,50.013,40.226,27.92,49.667,28.64,46.746,66.56-7,91.32,102.187,52.387,119.746,49.48s30.827-2.107,39.213-7.92c25.293-17.507,49.027-70.067,44.573-114.333s-57.173-29.067-69.227-49.4,24.387-45.64-6.667-79.587c-89.187-97.493-182.28-32.107-185.6,5.187a39.314,39.314,0,0,0,2.173,17.76" transform="translate(857 3801.327)" fill="#392054"/>
    <path id="path520" d="M2648.607-1333.97s30.347-72.106,35.213-84.08c0,0-42.387-37.76-67.68-34.813,0,0-32.787,51.493-52.107,53.36s-87.306,4.747-99.226,11.84-62.48,83.253-62.48,83.253,45.44,45.52,63.72,45.427c0,0,12.413-30.746,16.667-25.146s21.04,125.053,29.52,134.146c7.854,8.413,103.053,40.547,130.533,34.64,0,0,14.813-114.986,14.013-185.76-.133-10.813-8.174-32.867-8.174-32.867" transform="translate(857 3801.327)" fill="#ff8000"/>
    <path id="path522" d="M2516.047-1433.356s10.72,35.453,10.8,49.867,11.56,59.706,41.773,56.733-.307-59.067-4.586-72.746-9.44-56.906-9.44-56.906l-38.547,23.053" transform="translate(857 3801.327)" fill="#fde9d8"/>
    <path id="path524" d="M2557.46-1434.757c-1.693-11.786-2.866-21.653-2.866-21.653l-38.547,23.053s2.187,7.24,4.6,16.52c18.093,1.733,30.267-6.16,36.813-17.92" transform="translate(857 3801.327)" fill="#f8cda9"/>
    <path id="path526" d="M2490.927-1531.663a50.385,50.385,0,0,0-18.48,29.626c-3.773,19.347,7.733,67.106,49.253,74.627s55.026-32.627,43.626-61.747-33.386-65.226-74.4-42.506" transform="translate(857 3801.327)" fill="#fde9d8"/>
    <path id="path528" d="M2569.167-1501.3c.04,8.133-3.76,14.747-8.507,14.773s-8.613-6.547-8.653-14.68,3.76-14.746,8.507-14.773,8.613,6.547,8.654,14.68" transform="translate(857 3801.327)" fill="#fde9d8"/>
    <path id="path530" d="M2490.487-1460.783c5.467,6.547,6.307,14.853,1.88,18.547s-12.44,1.373-17.906-5.173-6.307-14.853-1.88-18.547,12.453-1.373,17.907,5.173" transform="translate(857 3801.327)" fill="#fde9d8"/>
    <path id="path532" d="M2691.06-1770.6a19.032,19.032,0,0,0-2.52,1.88l-4.627,4.187h0c4.267,1.013,11.333.187,17.947,5.187,0,0-1.307-5.413-10.8-11.253" transform="translate(857 3801.327)" fill="#6c5a80"/>
    <path id="path534" d="M2713.886-1953.969c13.16-16.827,43.147-41.387,49.626-46.6,5.787,5.893,14.507,23.32,15.653,31.187C2770.886-1967.675,2734.94-1956.515,2713.886-1953.969Zm49.347-56.52c-9.987,1.96-49.84,55.373-49.84,55.373l-1.413,3.693s72.12-8.013,74.733-11.093c7.053-8.32-15.293-49.587-23.48-47.973" transform="translate(857 3801.327)" fill="#6e5c82"/>
    <path id="path536" d="M2636.874-1996.249c-3.413-7.093,11.093-28.413,16.787-32.2a10.115,10.115,0,0,1,3.653-1.093c1.253,0,6.053.96,15.187,13.333,9.987,13.52,25.907,46.853,29.813,60.853C2675.193-1967.409,2640.127-1990.249,2636.874-1996.249Zm42.733-25.2c-15.56-21.08-23.853-17.52-29.733-14.987s-27.773,29.813-20.947,44.027,74.213,42.173,74.213,42.173l2.44-5.253s-10.427-44.893-25.973-65.96" transform="translate(857 3801.327)" fill="#6e5c82"/>
    <path id="path538" d="M2706.233-1941.142h3.24a5.8,5.8,0,0,0,5.8-5.8v-9.52a5.8,5.8,0,0,0-5.8-5.8h-3.24a5.8,5.8,0,0,0-5.8,5.8v9.52a5.787,5.787,0,0,0,5.8,5.8" transform="translate(857 3801.327)" fill="#6e5c82"/>
    <path id="path540" d="M2817.046-1764.542H2612.1a21.006,21.006,0,0,1-20.973-19.64l-10.747-164.626h266.893l-11.187,171.453c-.48,7.173-8.854,12.813-19.04,12.813" transform="translate(857 3801.327)" fill="#ef8289"/>
    <path id="path542" d="M2858.3-1912.889l-289.746.547-3.08-18.627a18.305,18.305,0,0,1,18.12-21.293l262.186.72c9.32.027,16.613,5.773,15.787,12.427l-3.267,26.227" transform="translate(857 3801.327)" fill="#f5b3b7"/>
    <path id="path544" d="M2713.06-1912.515h-5.507v-39.493h5.507v39.493" transform="translate(857 3801.327)" fill="#6e5c82"/>
    <path id="path546" d="M2720.033-1764.262h-6.893V-1912.7h6.893v148.44" transform="translate(857 3801.327)" fill="#6e5c82"/>
    <path id="path548" d="M2686.607-1754.049l-2.613-10.36c-8.133.2-14.187-1.747-18.733-2.973l-7.227-3.147a4.454,4.454,0,0,0-5.907,2.4,4.462,4.462,0,0,0,1.36,5.173s19.52,16.08,26.373,20.96c3.4,2.413,14.093,8.947,14.093,8.947l6.24-11.653-13.587-9.347" transform="translate(857 3801.327)" fill="#fde9d8"/>
    <path id="path550" d="M2978.726-1070.024c0,6.68-5.907,12.107-13.2,12.107s-13.2-5.427-13.2-12.107,5.907-12.107,13.2-12.107,13.2,5.427,13.2,12.107" transform="translate(857 3801.327)" fill="#6be4ee"/>
    <path id="path552" d="M3508.645-794.025c0,7.293-6.4,13.2-14.293,13.2s-14.307-5.907-14.307-13.2,6.4-13.2,14.307-13.2,14.293,5.907,14.293,13.2" transform="translate(857 3801.327)" fill="#6be4ee"/>
    <path id="path556" d="M3038.3-1319.637c91.84,17.107,157.786,76.706,147.28,133.12-5.254,28.213-28.627,50.293-62.16,63.173l21.787,90.12-66.4-79.266a257.909,257.909,0,0,1-78.546-2.84c-91.84-17.093-157.786-76.693-147.28-133.12s93.48-88.28,185.32-71.187" transform="translate(857 3801.327)" fill="#f2f8ff"/>
    <path id="path560" d="M2994.779-1226.41a31.519,31.519,0,0,0,14.76,42.067,31.52,31.52,0,0,0,42.053-14.773l-56.813-27.293" transform="translate(857 3801.327)" fill="#eadcff"/>
    <path id="path562" d="M3570.218-1710.942c-120.453-7.733-247.319,109.24-251.853,179.693-2.254,35.213,20.107,68.667,58.093,94.293L3307.885-1281.9l121.08-128.466c29.426,11.027,63.173,18.36,99.306,20.68,120.453,7.733,221.773-43.107,226.293-113.56s-63.893-199.96-184.346-207.693" transform="translate(857 3801.327)" fill="#fff7f0"/>
    <path id="path568" d="M4308.43-1247.037c-9.187-42.24-44.413-72.587-85.667-71.587-9.507-22.16-27.987-40.427-49.68-48.88-42.8-16.667-104.973-8.613-110,38.973-21.573,29.04-28.613,74.386-5.8,102.786-15.107,41.293,18.64,88.987,70.266,95.746,13.707,32.773,45.107,57.48,79.6,58.84,8.28.32,20.986.253,22.974,1.107-2.521-.907,48.333,52.573,106.239-7.773,59.093-61.587,36.227-151.32-27.933-169.213" transform="translate(857 3801.327)" fill="#392054"/>
    <path id="path570" d="M4026.124-1219.277s-141.013-68.04-141.693-70.8c-1.013-4.027,47.64-57.307,73.093-61.667,19.507-3.333,43.453-22.36,43.453-22.36s-26-29.987-50.76-25.04-23.133,25.213-23.133,25.213-66.386,35.773-104.973,70.907c-36.586,33.307,157.813,125,157.813,125l46.2-41.253" transform="translate(857 3801.327)" fill="#fde9d8"/>
    <path id="path572" d="M3951.884-491.412c6.04,32.587,16.32,61.253,17.72,64.627.68,1.627,7.133,7.56,7.88,9.213-3.467,39.733-28.8,63.347-52.573,80.173,5.16-20.04,16.64-43.04,15.16-47.493a568,568,0,0,0-31.12-80.2c19.787-2.227,26.826-14.253,42.933-26.32" transform="translate(857 3801.327)" fill="#fde9d8"/>
    <path id="path574" d="M4038.164-964.238l123.506,93.813s-61.146,58.827-84.093,80.693-151.453,105.653-153.453,110.653c-1.48,3.72,11.387,50.747,40.92,201.319-13.067,13.347-41.813,26.413-58.826,30.733-42.826-81.72-76.333-249.359-76.333-268.293,0-30.84,208.279-248.919,208.279-248.919" transform="translate(857 3801.327)" fill="#0061cb"/>
    <path id="path576" d="M4384.629-777.091c-4.041,3.933-30.854,56.16-41.053,84.12-14.934-9.4-23.974-20.6-40.653-26.933,13.16-19.053,38.827-64.88,40.946-75.8,5-25.88,10.88-29.693,10.88-29.693s86.773,29.36,92.546,37.587-46.453-5.093-62.667,10.72" transform="translate(857 3801.327)" fill="#fde9d8"/>
    <path id="path578" d="M4342.856-789.958c-6.733.027.573-30.4,2.12-37.413,1.733-7.88,6.307-10.24,7.44-10.52,3.08-.773,99.506,31.853,115.8,43.573a19.333,19.333,0,0,1,3.386,3.867c8.92,16.653-70.573,19.813-82.014,12.547-10.173-6.48-16.453-12.133-46.733-12.053" transform="translate(857 3801.327)" fill="#2c2c2c"/>
    <path id="path580" d="M4011.79-936.544s116.386-45.827,117.906-40.947c12.041,38.813,54.693,26.28,76.96,94.653,9.32,28.64,11.507,104.213,17.787,160.266,4.32,38.52,10.36,69.386,10.36,69.386s26.946-31.72,77.666-88.866c3.934-4.427,44.88,26.387,44.88,26.387-80.773,160.173-140.226,184.133-152.573,178.466-83.479-38.293-151.8-325.146-151.666-325.119-9.493-18.48-41.32-74.227-41.32-74.227" transform="translate(857 3801.327)" fill="#1271d8"/>
    <path id="path582" d="M4191.417-1207.93s138.946-.173,168.692-1.893c26.933-1.547,133.72,1.173,137.893.693s31.773-47.24,36.36-42.213-15.36,23.173-9.187,27.88,72.44-5.84,71.56-.933c-1.64,9.173-40.306,8-40.266,12.427s40.466-2.48,43.213,4.867-38.893,3-40.56,6.267,38.614,9.28,34.493,16.12c-2.227,3.707-35.68-6.2-35.52-1.133s24.573,16.56,21.573,20.587-19.146-12.36-33.307-12.56-24.293-7.6-46.893-1.4c-11.173,3.067-96.36,13.48-168.359,19.627-73.8,6.307-134.293,8.32-134.293,8.32l-5.4-56.653" transform="translate(857 3801.327)" fill="#fde9d8"/>
    <path id="path584" d="M3985.39-1084.411c-1.84-22.307,2.547-64.773,3.547-72.173-6.746-23.173-47.893-25.56-53.053-35.267,0,0,18.133-58.626,42.907-58.307,0,0,58.133,22.08,77.68,32.28.293-.08,6.92,2.96,9.84,2.933,18.88-.133,84.853-2.133,97.174,1.547l-6.987,101.946c-3.546,5.84-9.32,129.306-16.626,138.96s-112.013,47.32-129.613,35.987c-.707-.453-21.146-102.8-24.866-147.906" transform="translate(857 3801.327)" fill="#ffd501"/>
    <path id="path586" d="M4129.11-1211.037c12.173-5.813,101.08-5.627,101.08-5.627s12.307,61.32,2.359,76.067c0,0-78.746,11.72-76.506,18.173l-26.934-88.613" transform="translate(857 3801.327)" fill="#ffd501"/>
    <path id="path588" d="M4114.6-1256.65s-14.267,33.067-15.933,46.987-17.747,56.413-46.626,50.213,6.813-57.026,12.467-69.786,15.387-53.947,15.387-53.947l34.707,26.533" transform="translate(857 3801.327)" fill="#fde9d8"/>
    <path id="path590" d="M4074.737-1262.57c2.933-11.213,5.16-20.613,5.16-20.613l34.707,26.533s-2.92,6.76-6.267,15.453c-17.68-.32-28.573-9.28-33.6-21.373" transform="translate(857 3801.327)" fill="#f8cda9"/>
    <path id="path592" d="M4160.39-1337.037a49.024,49.024,0,0,1,8.054,32.987c-2.414,19.027-27.574,59.627-68.213,53.933s-40.893-46.893-21.493-70.32,50.693-50.067,81.653-16.6" transform="translate(857 3801.327)" fill="#fde9d8"/>
    <path id="path594" d="M4078.883-1332.81c-2.52,7.493-1.013,14.76,3.36,16.227s9.947-3.427,12.453-10.92,1.013-14.773-3.347-16.24-9.947,3.427-12.467,10.933" transform="translate(857 3801.327)" fill="#fde9d8"/>
    <path id="path596" d="M3969.91-425.812c2.48-6.253,27.626,13.68,33.546,17.72,6.68,4.547,7.174,9.667,7,10.827-.427,3.067-64.386,81.84-83.093,92.72a10.8,10.8,0,0,1-6.573.64c-10.387-4,6.52-68.466,20.16-81.187,8.813-8.227,17.76-12.587,28.96-40.72" transform="translate(857 3801.327)" fill="#2c2c2c"/>
    <path id="path598" d="M4157.149-1341.1s-15.08,51.107-3.387,66.787-4.426,34.133-4.426,34.133,36.387-43.307,31.213-64.773-23.4-36.146-23.4-36.146" transform="translate(857 3801.327)" fill="#392054"/>
    <path id="path600" d="M4141.43-1271.53c-7.04,4.387-10.347,11.8-7.387,16.547s11.08,5.067,18.12.68,10.347-11.8,7.374-16.56-11.067-5.053-18.107-.667" transform="translate(857 3801.327)" fill="#fde9d8"/>
    <path id="path602" d="M4060.9-1394.156l2.707,7.4a10.421,10.421,0,0,1-3.586,11.933l-6.56,4.866a10.407,10.407,0,0,1-13.56-.987l-5.76-5.733,26.76-17.48" transform="translate(857 3801.327)" fill="#6e5c82"/>
    <path id="path604" d="M4024.364-1382.437l-10.827-2.933-7.466,3.987s-48.453,21.573-58.053,21.613-17-17.44-14.68-20.733,33.733-11.227,33.733-11.227l19.52-17.653,1.094-12.787,36.68,39.733" transform="translate(857 3801.327)" fill="#f0868d"/>
    <path id="path606" d="M4028.244-1465.57l34.227,60.56a12.388,12.388,0,0,1-3.747,16.293l-20.667,14.253a12.375,12.375,0,0,1-16.253-1.92l-45.6-50.8,52.04-38.387" transform="translate(857 3801.327)" fill="#6e5c82"/>
    <path id="path608" d="M4030.443-1466.6l-54.2,40.907a10.354,10.354,0,0,1-13.386-.773l-99.52-94.906,108.306-78.44,61.773,120.213a10.344,10.344,0,0,1-2.973,13" transform="translate(857 3801.327)" fill="#6e5c82"/>
    <path id="path610" d="M3902.284-1581.8c-30.76,20.947-49.667,46.786-42.227,57.693s38.387,2.773,69.146-18.187,49.667-46.786,42.226-57.706-38.387-2.76-69.146,18.2" transform="translate(857 3801.327)" fill="#f0868d"/>
    <path id="path612" d="M3868.977-1528.57c8.707,2.053,31-4.653,55.187-21.133,30.267-20.627,41.64-41.066,39.84-45.266h0a4.781,4.781,0,0,0-1.493-.56c-8.707-2.053-31,4.653-55.173,21.133-30.28,20.627-41.653,41.067-39.854,45.28v-.013a4.99,4.99,0,0,0,1.493.56" transform="translate(857 3801.327)" fill="#eadcff"/>
    <path id="path614" d="M3941.377-1395.517l12.854,4.813s8.387,3.707,10.293,10.987,11.16,5.587,8.6-2.04a75.611,75.611,0,0,0-5.2-12.253s10.454,14.307,11.534,14.427c6.067.627,6.973-8.32-3.374-18.48s-34.707,2.547-34.707,2.547" transform="translate(857 3801.327)" fill="#fde9d8"/>
    <path id="path616" d="M3984.657-1390.063s22,8.987,17.6,14.48-17.6,11.56-17.973,8.627,8.627-6.973,2.76-13.027c-1.64-1.68-9.72-10.08-2.387-10.08" transform="translate(857 3801.327)" fill="#fde9d8"/>
    <g id="Channel-logo" transform="translate(3959.777 2298.803)">
      <path id="Path_1" data-name="Path 1" d="M0,31.538A31.538,31.538,0,0,1,31.538,0H92.511V121.946H29.435A29.435,29.435,0,0,1,0,92.511Z" fill="#333"/>
      <path id="Path_2" data-name="Path 2" d="M121.331,20.738a9.847,9.847,0,0,0-2.786-6.885A9.383,9.383,0,0,0,111.824,11H21.507a9.383,9.383,0,0,0-6.721,2.853A9.847,9.847,0,0,0,12,20.738V74.3a9.847,9.847,0,0,0,2.786,6.885,9.383,9.383,0,0,0,6.721,2.853h80.81l19.014,19.476Z" transform="translate(13.23 12.128)" fill="#1eb9ea" fill-rule="evenodd"/>
    </g>
    <g id="Doc-logo" transform="translate(3728 2260)">
      <path id="Path_3" data-name="Path 3" d="M78.873,7.411A7.411,7.411,0,0,0,71.462,0H30.9V63.241H71.956a6.917,6.917,0,0,0,6.917-6.917Z" transform="translate(-15.631)" fill="#ffd501"/>
      <path id="Path_4" data-name="Path 4" d="M3.6,26.482H25.022a3.6,3.6,0,0,1,0,7.2H3.6a3.6,3.6,0,0,1,0-7.2ZM38.333,64.645H3.6a3.6,3.6,0,0,1,0-7.2H38.333a3.6,3.6,0,0,1,0,7.2Zm0-15.481H3.6a3.6,3.6,0,0,1,0-7.2H38.333a3.6,3.6,0,0,1,0,7.2Z" transform="translate(0 -13.398)" fill="#333"/>
    </g>
    <path id="Email-logo" d="M10.938,28.7,57.931,0l45.178,28.909a16.063,16.063,0,0,1,10.363,15.018v75.489a16.058,16.058,0,0,1-16.057,16.057H16.057A16.058,16.058,0,0,1,0,119.416V43.927A16.064,16.064,0,0,1,10.938,28.7Zm46.776,55.9L23.477,53.3H91.952Z" transform="translate(4337.335 2186.201)" fill="#ff8000" fill-rule="evenodd"/>
    <g id="Meet-logo" transform="translate(3825.736 2544.327)">
      <path id="Path_5" data-name="Path 5" d="M115.653,26.936a3.159,3.159,0,0,1,5.091,2.5V61.793a3.159,3.159,0,0,1-5.091,2.5L94.717,48.114a3.159,3.159,0,0,1,0-5Z" transform="translate(-19.656 -5.711)"/>
      <path id="Path_6" data-name="Path 6" d="M85.126,12.083A11.846,11.846,0,0,0,73.28.237H11.846A11.846,11.846,0,0,0,0,12.083V69.114A11.846,11.846,0,0,0,11.846,80.961H73.28A11.846,11.846,0,0,0,85.126,69.114Z" transform="translate(0 -0.237)" fill="#1271d8"/>
      <path id="Path_7" data-name="Path 7" d="M35.5,33.763a7.8,7.8,0,0,1,6.191-6.457c1.211-.135,2.153-.673,3.5,2.421,1.211,3.094,2.826,7.4,2.826,7.4a2.32,2.32,0,0,1-.673,1.749,30.91,30.91,0,0,1-2.288,2.556,1.692,1.692,0,0,0,0,1.48c1.615,3.228,7.4,8.878,10.5,10.627a1.436,1.436,0,0,0,1.48-.135s1.615-1.48,2.557-2.287a2.189,2.189,0,0,1,1.884-.538s4.172,1.48,7.267,2.825c3.1,1.211,2.557,2.152,2.422,3.5,0,1.211-1.615,5.246-6.46,6.053C53.125,64.97,33.611,45.465,35.5,33.763Z" transform="translate(-7.436 -5.903)" fill="#fff" fill-rule="evenodd"/>
    </g>
    <path id="OKR-logo" d="M84.92,9.2a54.587,54.587,0,1,0,20.1,24.5A54.587,54.587,0,0,0,84.92,9.2ZM36.4,27.347a32.75,32.75,0,1,1-12.062,14.7A32.75,32.75,0,0,1,36.4,27.347ZM54.587,61.92a7.333,7.333,0,1,0-7.333-7.333A7.333,7.333,0,0,0,54.587,61.92Z" transform="translate(4440.244 2512.468)" fill-rule="evenodd"/>
    <path id="Todo-logo" d="M23.138,0A23.138,23.138,0,0,0,0,23.138V66.329A23.138,23.138,0,0,0,23.138,89.466H66.329A23.138,23.138,0,0,0,89.466,66.329V23.138A23.138,23.138,0,0,0,66.329,0Zm9.255,24.68a7.712,7.712,0,0,0-7.713,7.713V58.616a7.712,7.712,0,0,0,7.713,7.713H58.616a7.712,7.712,0,0,0,7.713-7.713V32.393a7.712,7.712,0,0,0-7.713-7.713Z" transform="translate(4159.457 2801.61)" fill="#00d478" fill-rule="evenodd"/>
  </g>
</svg>
