<svg xmlns="http://www.w3.org/2000/svg" width="402" height="321.05" viewBox="0 0 402 321.05">
  <g id="secure-final" transform="translate(0 0.1)">
    <path id="Path_109" data-name="Path 109" d="M93.2,52.2a3.946,3.946,0,0,0-1-2.5,4.44,4.44,0,0,0-1.1-.8,3.079,3.079,0,0,0-1.3-.3H57.2a2.768,2.768,0,0,0-1.3.3,2.836,2.836,0,0,0-1.1.8,3.946,3.946,0,0,0-1,2.5V71.5a3.946,3.946,0,0,0,1,2.5,4.44,4.44,0,0,0,1.1.8,3.079,3.079,0,0,0,1.3.3H86.4l6.9,7V52.2Z" fill="#00d478" fill-rule="evenodd"/>
    <path id="Path_110" data-name="Path 110" d="M83.9,61.9c-.4-.8-.6-1.5.1-2a1.821,1.821,0,0,1,2.4-.2c.7.6,1.1,1.7.7,2.3-.7.9-1.7.7-2.6.4C84.3,62.4,84.2,62.2,83.9,61.9Z" fill="#fff"/>
    <path id="Path_111" data-name="Path 111" d="M67.9,60.8c.1-1.4.9-1.5,1.8-1.4a3.128,3.128,0,0,1,1,.5c.9.7.2,1.4-.1,2.1-.3.8-1.2.7-1.8.6C68,62.5,67.8,61.8,67.9,60.8Z" fill="#fff"/>
    <path id="Path_112" data-name="Path 112" d="M62.2,59.6c.2.3.2.6.3.7.9.8-.6,1.2-.3,1.9a9.255,9.255,0,0,1-2.3-.4c-.3-.2-.3-1.2-.1-1.8C60.3,58.9,61.2,58.9,62.2,59.6Z" fill="#fff"/>
    <path id="Path_113" data-name="Path 113" d="M78.5,60.4c-.1.7.1,1.4-.2,1.7a1.612,1.612,0,0,1-.7.4,1.1,1.1,0,0,1-.8,0c-.7-.2-1.4-1.7-1-2.3a2.651,2.651,0,0,1,.6-.5,1.884,1.884,0,0,1,.8-.2A2.07,2.07,0,0,1,78.5,60.4Z" fill="#fff"/>
    <path id="Path_114" data-name="Path 114" d="M236.7,3.5a3.946,3.946,0,0,1,1-2.5,4.44,4.44,0,0,1,1.1-.8,3.079,3.079,0,0,1,1.3-.3h32.6a2.768,2.768,0,0,1,1.3.3,2.836,2.836,0,0,1,1.1.8,3.946,3.946,0,0,1,1,2.5V22.8a3.946,3.946,0,0,1-1,2.5,4.44,4.44,0,0,1-1.1.8,3.079,3.079,0,0,1-1.3.3H243.5l-6.9,7V3.5Z" fill="#00d478" fill-rule="evenodd"/>
    <path id="Path_115" data-name="Path 115" d="M246,13.2c.4-.8.6-1.5-.1-1.9a1.821,1.821,0,0,0-2.4-.2c-.7.6-1.1,1.7-.7,2.3.7.9,1.7.7,2.6.4C245.6,13.7,245.7,13.5,246,13.2Z" fill="#fff"/>
    <path id="Path_116" data-name="Path 116" d="M262,12.1c-.1-1.4-.9-1.5-1.8-1.4a3.128,3.128,0,0,0-1,.5c-.9.7-.2,1.4.1,2.1.3.8,1.2.7,1.8.6C261.9,13.8,262.2,13.1,262,12.1Z" fill="#fff"/>
    <path id="Path_117" data-name="Path 117" d="M267.7,10.9c-.2.3-.2.6-.3.7-.9.8.6,1.2.3,1.9a9.255,9.255,0,0,0,2.3-.4c.3-.2.3-1.2.1-1.8C269.7,10.2,268.7,10.2,267.7,10.9Z" fill="#fff"/>
    <path id="Path_118" data-name="Path 118" d="M251.4,11.7c.1.7-.1,1.4.2,1.7a1.612,1.612,0,0,0,.7.4,1.1,1.1,0,0,0,.8,0c.7-.2,1.4-1.7,1-2.3a2.651,2.651,0,0,0-.6-.5,1.884,1.884,0,0,0-.8-.2C252.3,10.8,251.9,11.2,251.4,11.7Z" fill="#fff"/>
    <path id="Path_119" data-name="Path 119" d="M33.2,124.1c3.9,0,7-3.8,7-8.5s-3.1-8.5-7-8.5-7,3.8-7,8.5S29.3,124.1,33.2,124.1Z" fill="#1271d8"/>
    <path id="Path_120" data-name="Path 120" d="M125.7,14.1a6.736,6.736,0,0,0,6.5-7,6.518,6.518,0,1,0-13,0A6.736,6.736,0,0,0,125.7,14.1Z" fill="#1271d8"/>
    <path id="Path_121" data-name="Path 121" d="M338.2,34.1c5.5,0,10-5.1,10-11.5s-4.5-11.5-10-11.5-10,5.1-10,11.5S332.6,34.1,338.2,34.1Z" fill="#1271d8"/>
    <path id="Path_122" data-name="Path 122" d="M40.9,260.7c3.2,0,5.7-3.4,5.7-7.7s-2.6-7.7-5.7-7.7-5.7,3.4-5.7,7.7S37.7,260.7,40.9,260.7Z" fill="#1271d8"/>
    <path id="Path_123" data-name="Path 123" d="M352.7,155.1c4.1,0,7.5-4.3,7.5-9.5s-3.4-9.5-7.5-9.5-7.5,4.3-7.5,9.5S348.5,155.1,352.7,155.1Z" fill="#1271d8"/>
    <path id="Path_124" data-name="Path 124" d="M213.2,227.1h-21a2.006,2.006,0,0,0-2,2v37a2.006,2.006,0,0,0,2,2h21a2.006,2.006,0,0,0,2-2v-37A2.006,2.006,0,0,0,213.2,227.1Z" fill="#1271d8"/>
    <path id="Path_125" data-name="Path 125" d="M201.7,234.1c13.5,0,24.5-11.4,24.5-25.5s-11-25.5-24.5-25.5-24.5,11.4-24.5,25.5S188.1,234.1,201.7,234.1Z" fill="#1271d8"/>
    <path id="Path_126" data-name="Path 126" d="M108.2,281.3v19.3a19.632,19.632,0,0,1-19.6,19.6H84.2a19.632,19.632,0,0,1-19.6-19.6V281.3Z" fill="none" stroke="#000" stroke-miterlimit="10" stroke-width="1.5"/>
    <line id="Line_4" data-name="Line 4" x2="402" transform="translate(0 320.2)" fill="none" stroke="#000" stroke-miterlimit="10" stroke-width="1.5"/>
    <line id="Line_5" data-name="Line 5" transform="translate(89.8 271.2)" fill="none" stroke="#000" stroke-miterlimit="10" stroke-width="1.5"/>
    <path id="Path_127" data-name="Path 127" d="M94.8,249.1h0" fill="none" stroke="#000" stroke-miterlimit="10" stroke-width="1.5"/>
    <g id="Group_8" data-name="Group 8">
      <path id="Path_128" data-name="Path 128" d="M89.8,271.2a19.725,19.725,0,0,1-4.8-.6c-24.5-43.2-15.4-98.5-15.4-98.5a15,15,0,0,1,6.5-.5s-6.2,70,13,97.4Z" fill="none" stroke="#000" stroke-miterlimit="10" stroke-width="1.5"/>
      <path id="Path_129" data-name="Path 129" d="M85,270.6a5.306,5.306,0,0,1-1.7-.8,3.819,3.819,0,0,1-.9-.9c-.4-.5-.7-1-1-1.3a19.524,19.524,0,0,1-1.7-2.3,64.47,64.47,0,0,1-5.1-9.3,135.969,135.969,0,0,1-6.2-17.2c-2.1-7.3-3.8-14.8-5.2-22.3,0,0-20.7-1.4-22-21.6,0,0-.8-8.4,3.4-11.8a7.174,7.174,0,0,1,3.5-.8c2.2.1,4.9,1.8,5.8,8.2,1.7,11.9,6.2,18.8,8,18.1,1.7-.6.7-7.5-1.8-15.8a9.349,9.349,0,0,1-.4-3.3c.2-4.4,1.5-14.8,10.1-17.4C69.6,172.1,60.5,227.4,85,270.6Z" fill="none" stroke="#000" stroke-miterlimit="10" stroke-width="1.5"/>
      <path id="Path_130" data-name="Path 130" d="M96.7,247.9c11.2-8,6.7-23.7,6.7-23.7-2.2,2.4-1.8,7-1.8,7-.7,7.3-2.9,9.8-4.9,10.6a4.281,4.281,0,0,1-3.2,0c-5.1-4-.9-25-.9-25,1.3-1,2.5-1.9,3.6-2.8.2-.2.4-.3.6-.5a17.382,17.382,0,0,0,1.5-1.3c3.2-4.8,2.1-16.5,2.1-17a15.5,15.5,0,0,0-3.2,3,45.68,45.68,0,0,0-4.7,6.8c-.4.7-.7,1.7-1.6,1.9-1.8.4-2.5-1.6-2.8-3-.8-3.9-.5-7.9-.8-11.9-.2-4.5-.6-9.2-2.3-13.5-1.6-3.8-4.5-6.7-8.8-7.1,0,0-6.2,70,13,97.4L90,271h1c1.1,0,2.2.1,3.3.1a13.4,13.4,0,0,0,2-.1c-5.7-5.5-3-22-3-22a9.7,9.7,0,0,0,1.7-.1" fill="none" stroke="#000" stroke-miterlimit="10" stroke-width="1.5"/>
      <path id="Path_131" data-name="Path 131" d="M98.2,212.3c3.2-4.8,2.1-16.5,2.1-17h0a3.606,3.606,0,0,1,2-.6C106,195,111.5,200.5,98.2,212.3Z" fill="none" stroke="#000" stroke-miterlimit="10" stroke-width="1.5"/>
      <path id="Path_132" data-name="Path 132" d="M94.8,249.1a11.077,11.077,0,0,0,1.9-.2,17.041,17.041,0,0,0,7.4-2.6c6.3-7.4,2.4-23.5,2.4-23.5a4.185,4.185,0,0,0-3.2,1.4s4.5,15.6-6.7,23.7" fill="none" stroke="#000" stroke-miterlimit="10" stroke-width="1.5"/>
      <path id="Path_133" data-name="Path 133" d="M104.2,246.4c6.3-7.4,2.5-23.5,2.5-23.5C112,222.8,115.1,243.7,104.2,246.4Z" fill="none" stroke="#000" stroke-miterlimit="10" stroke-width="1.5"/>
      <path id="Path_134" data-name="Path 134" d="M48,182.3S43.8,199.2,60.3,216" fill="none" stroke="#000" stroke-miterlimit="10" stroke-width="1.5"/>
      <path id="Path_135" data-name="Path 135" d="M98.2,212.3a4.939,4.939,0,0,1-2,1.8" fill="none" stroke="#000" stroke-miterlimit="10" stroke-width="1.5"/>
      <path id="Path_136" data-name="Path 136" d="M78.5,172.1s7.9,12.9,6,50.7,9.1,47.8,9.1,47.8l.7.7" fill="none" stroke="#000" stroke-miterlimit="10" stroke-width="1.5"/>
    </g>
    <path id="Path_137" data-name="Path 137" d="M96.7,247.9" fill="none" stroke="#000" stroke-miterlimit="10" stroke-width="1.5"/>
    <path id="Path_138" data-name="Path 138" d="M96.7,241.8V213.5" fill="none" stroke="#000" stroke-miterlimit="10" stroke-width="1.5"/>
    <g id="Group_9" data-name="Group 9">
      <path id="Path_139" data-name="Path 139" d="M330.9,285.1a15.068,15.068,0,0,0,2.5,4.2l15,16.7,8.8,9.8a13.1,13.1,0,0,0,18.4,1,13.089,13.089,0,0,0,1-18.4l-17-19" fill="none" stroke="#000" stroke-miterlimit="10" stroke-width="1.5"/>
      <path id="Path_140" data-name="Path 140" d="M316.5,233.7a43.218,43.218,0,0,0-42.6,35.8c0,.2-.3.4-.5.4l-8.4.5a2.814,2.814,0,0,0-2.1,1l-8,9.7a2.088,2.088,0,0,1-1.6.8l-16.8,1.5a2.617,2.617,0,0,1-2.8-2l-1.2-5.3a1.326,1.326,0,0,0-1.5-1l-5,.7a2.653,2.653,0,0,0-2.3,2.2c-.7,4,1.5,10,1.5,10l-6.7,1a2.013,2.013,0,0,1-2.1-1.1l-3.4-7.6a2.224,2.224,0,0,0-2.5-1.3l-11.2,2.6a3.641,3.641,0,0,0-2.8,3.6v2.7L180,290.1l-.7-1.8a3.408,3.408,0,0,0-4.1-1.9,4.3,4.3,0,0,0-2.4,1.8,4.678,4.678,0,0,0-.9,2.8v3.7c-3.5,2.7-5.8-1.9-7-5.5a4.243,4.243,0,0,0-4.9-2.8l-9.9,2.3a5.147,5.147,0,0,0-3.4,2.7l-13.1,28.7H282.2l10.1-4.8a5.087,5.087,0,0,1,4.5.1,43.193,43.193,0,0,0,51.7-9.5,43,43,0,0,0,11.2-26.7v-.7A43.2,43.2,0,0,0,316.5,233.7Zm15,51.5h-.6a9.011,9.011,0,0,1,.7-18,8.947,8.947,0,0,1,9,9A9.113,9.113,0,0,1,331.5,285.2Z" fill="none" stroke="#000" stroke-miterlimit="10" stroke-width="1.5"/>
      <path id="Path_141" data-name="Path 141" d="M340.6,276.1a9.048,9.048,0,0,1-9,9.1H331a12.937,12.937,0,0,1,3.5-14.2l2.5-2.1A8.941,8.941,0,0,1,340.6,276.1Z" fill="none" stroke="#000" stroke-miterlimit="10" stroke-width="1.5"/>
      <path id="Path_142" data-name="Path 142" d="M336.9,268.8l-2.5,2.1a13.019,13.019,0,0,0-3.5,14.2,9.011,9.011,0,0,1,.7-18A8.4,8.4,0,0,1,336.9,268.8Z" fill="none" stroke="#000" stroke-miterlimit="10" stroke-width="1.5"/>
    </g>
    <path id="Path_143" data-name="Path 143" d="M96.7,250.1h0v21.1" fill="none" stroke="#000" stroke-miterlimit="10" stroke-width="1.5"/>
    <path id="Path_144" data-name="Path 144" d="M105.6,310.3a32.111,32.111,0,0,0,21.5,9.9h149" fill="none" stroke="#000" stroke-miterlimit="10" stroke-width="1.5"/>
    <path id="Path_145" data-name="Path 145" d="M283.6,147.9a32.038,32.038,0,0,1,23,30.7v56.1" fill="none" stroke="#000" stroke-miterlimit="10" stroke-width="1.5"/>
    <line id="Line_6" data-name="Line 6" x1="44.5" transform="translate(209.5 146.6)" fill="none" stroke="#000" stroke-miterlimit="10" stroke-width="1.5"/>
    <path id="Path_146" data-name="Path 146" d="M96.7,198.8V178.7a32.244,32.244,0,0,1,25-31.3" fill="none" stroke="#000" stroke-miterlimit="10" stroke-width="1.5"/>
    <path id="Path_147" data-name="Path 147" d="M96.7,241.8V213.5" fill="none" stroke="#000" stroke-miterlimit="10" stroke-width="1.5"/>
    <line id="Line_7" data-name="Line 7" transform="translate(198.6 94.4)" fill="none" stroke="#000" stroke-miterlimit="10" stroke-width="1.5"/>
    <path id="Path_148" data-name="Path 148" d="M171.9,104.4h0" fill="none" stroke="#000" stroke-miterlimit="10" stroke-width="1.5"/>
    <path id="Path_149" data-name="Path 149" d="M192.1,65.3a74.508,74.508,0,0,1,10.6-.7,81.045,81.045,0,0,1,81,81V148a33.751,33.751,0,0,0-9-1.3H254v-1.1a51.414,51.414,0,0,0-44-50.9" fill="none" stroke="#000" stroke-miterlimit="10" stroke-width="1.5"/>
    <path id="Path_150" data-name="Path 150" d="M158.4,119.4a59.331,59.331,0,0,0-2.9,5.6" fill="none" stroke="#000" stroke-miterlimit="10" stroke-width="1.5"/>
    <path id="Path_151" data-name="Path 151" d="M136.2,99.4A80.8,80.8,0,0,1,183.1,67" fill="none" stroke="#000" stroke-miterlimit="10" stroke-width="1.5"/>
    <path id="Path_152" data-name="Path 152" d="M133.9,146.6h-5.1a31.943,31.943,0,0,0-7,.8v-1.8a77.731,77.731,0,0,1,.6-9.7" fill="none" stroke="#000" stroke-miterlimit="10" stroke-width="1.5"/>
    <path id="Path_153" data-name="Path 153" d="M177.8,53.8h0a.749.749,0,0,1-.1.5h0v1a13.576,13.576,0,0,0,.3,2.9c.9,4.6,4,7.9,7.6,7.9,4.3,0,7.8-4.8,7.8-10.8a21.117,21.117,0,0,0-.2-2.6v-.1" fill="none" stroke="#000" stroke-miterlimit="10" stroke-width="1.5"/>
    <path id="Path_154" data-name="Path 154" d="M177.8,53.9v.5h0v.1a34.623,34.623,0,0,0,.3,3.8h0c-.2.1-3.5,1.7-3.8-3.6,0,0,.9-3.6,3-2.7" fill="none" stroke="#000" stroke-miterlimit="10" stroke-width="1.5"/>
    <path id="Path_155" data-name="Path 155" d="M177.8,53.9s7-3.6,7.8-5.2,1.2,3,3.9,1.9,3.7,1.7,3.8,2.3,1.1-2.7-.6-6.5c0,0,5-8-.8-10-5.9-2.1-6,1.6-8.3,5.5C183.5,41.8,173.5,43.2,177.8,53.9Z" stroke="#000" stroke-miterlimit="10" stroke-width="1.5"/>
    <path id="Path_156" data-name="Path 156" d="M183.1,65.7a10.6,10.6,0,0,0,.2,2.7c.4,2,1.6,4.1,5.1,3.1,6-1.8,3-8.7,3-8.7A7.165,7.165,0,0,1,183.1,65.7Z" fill="none" stroke="#000" stroke-miterlimit="10" stroke-width="1.5"/>
    <path id="Path_157" data-name="Path 157" d="M173.4,129.7c.1,0,.2.1.3.1a1.986,1.986,0,0,0,1.1.1c.3-.1.6-.2,1-.3s.9-.3,1.3-.4c28.3-7.8,34.9.8,34.9.8.4-40.3-6.3-54.1-7.2-55.7-.1-.1-.1-.2-.1-.4-1-4.8-7.8-6.2-11-6.6a1.76,1.76,0,0,0-1.7,1c-.3.7-1.3,1.8-3.6,3.1-2.9,1.6-4.2.1-4.7-1.3a1.573,1.573,0,0,0-2.2-.8c-2.9,1.5-8.4,4.3-10.2,4.8-2.5.8-8.3,15.4-8.1,17.1.1,1.3,4.6,2.9,6.6,3.5a1.635,1.635,0,0,1,1.1,1.4c.5,5.8,2.6,17.6,2.6,17.6" fill="none" stroke="#000" stroke-miterlimit="10" stroke-width="1.5"/>
    <path id="Path_158" data-name="Path 158" d="M171.6,102.4s-4.1,14.9-17.4,18.7l-3.3-7.2c2.6-1.6,9.7-7.5,9.7-7.5a39.5,39.5,0,0,1,5.2-13" fill="none" stroke="#000" stroke-miterlimit="10" stroke-width="1.5"/>
    <path id="Path_159" data-name="Path 159" d="M183.1,94.2l1.1.8,9.7,6.4s14.6-18.9,6.3-23.4C192,73.5,186.7,81.2,183.1,94.2Z" fill="none" stroke="#000" stroke-miterlimit="10" stroke-width="1.5"/>
    <path id="Path_160" data-name="Path 160" d="M156.5,126.1s16.3-11.7,21.5-15.5c0,0,3.3-11.7,6.2-15.6l9.7,6.4s-4,12-10.9,17S165.3,130,165.3,130l-6.9,1Z" fill="none" stroke="#000" stroke-miterlimit="10" stroke-width="1.5"/>
    <path id="Path_161" data-name="Path 161" d="M156,132.4,120.8,136a2.079,2.079,0,0,1-2.1-1.1L104,104.4a1.928,1.928,0,0,1,1.8-2.7L141.9,99a2.087,2.087,0,0,1,2.1,1.2l13.8,29.6A1.916,1.916,0,0,1,156,132.4Z" fill="none" stroke="#000" stroke-miterlimit="10" stroke-width="1.5"/>
    <path id="Path_162" data-name="Path 162" d="M174.9,126.9l-15.7,2a1.342,1.342,0,0,0-1.2,1.5h0c.1.8-1,1.6-.9,2.1l17.4-2.3c1.4-.7,1.9-1.4,1.8-2.2h0C176.4,127.4,175.7,126.8,174.9,126.9Z"/>
    <path id="Path_163" data-name="Path 163" d="M214.3,137.3a11.515,11.515,0,0,1-4.8,9.3,12.339,12.339,0,0,1-5.9,2.4c-12.9.4-25.8.9-38.6,1.3a1.52,1.52,0,0,0-1.5,1.4l-5.3,49.5a3.019,3.019,0,0,1-3,2.6,2.919,2.919,0,0,1-2.8-2.7c-.6-10.3-1.2-20.5-1.8-30.8l-.9-15c-.2-3.5-.3-7-.6-10.5,0-.5-.1-1-.1-1.5a11.355,11.355,0,0,1,3.3-8,12.8,12.8,0,0,1,7.3-3.7l34.9-4.6c6.7-.9,20.6,1.7,19.6,8.9A3.178,3.178,0,0,1,214.3,137.3Z" fill="none" stroke="#000" stroke-miterlimit="10" stroke-width="1.5"/>
    <path id="Path_164" data-name="Path 164" d="M138.4,134.2a8.745,8.745,0,0,0-1,.8,11.979,11.979,0,0,0-3.7,7.9v1.6c0,.7.1,1.4.1,2.1.1,2.8,0,5.6.1,8.4.1,5,.1,10,.2,15,.1,10.3.3,20.5.4,30.8a2.843,2.843,0,0,0,2.7,2.8,2.872,2.872,0,0,0,3.1-2.4l7.6-53.3c.1-.8.7-.6,1.4-.6,0,0,0,1.1.1,1.1" fill="none" stroke="#000" stroke-miterlimit="10" stroke-width="1.5"/>
    <path id="Path_165" data-name="Path 165" d="M193.5,149.4h0" fill="none" stroke="#000" stroke-miterlimit="10" stroke-width="1.5"/>
    <path id="Path_166" data-name="Path 166" d="M135.3,207.9h-.1v-4.6h.9" fill="none" stroke="#000" stroke-miterlimit="10" stroke-width="1.5"/>
    <path id="Path_167" data-name="Path 167" d="M138.8,203.3h.8v3.8" fill="none" stroke="#000" stroke-miterlimit="10" stroke-width="1.5"/>
    <path id="Path_168" data-name="Path 168" d="M153.7,203.3h-.8v4.6H156" fill="none" stroke="#000" stroke-miterlimit="10" stroke-width="1.5"/>
    <path id="Path_169" data-name="Path 169" d="M157,203.3h.3v4.3" fill="none" stroke="#000" stroke-miterlimit="10" stroke-width="1.5"/>
    <path id="Path_170" data-name="Path 170" d="M129.8,212.1l9.6.4a.846.846,0,0,0,1-.8v-3.8a.846.846,0,0,0-1-.8l-9.6,1.9C128.9,209.2,128.9,212,129.8,212.1Z" fill="none" stroke="#000" stroke-miterlimit="10" stroke-width="1.5"/>
    <path id="Path_171" data-name="Path 171" d="M148,212.6l9.6.4a.846.846,0,0,0,1-.8v-3.8a.846.846,0,0,0-1-.8l-9.6,1.9C147,209.7,147,212.5,148,212.6Z" fill="none" stroke="#000" stroke-miterlimit="10" stroke-width="1.5"/>
    <path id="Path_172" data-name="Path 172" d="M96.7,271.2V247.9l-.9.8-1.6.5" fill="none" stroke="#000" stroke-miterlimit="10" stroke-width="1.5"/>
    <path id="Path_173" data-name="Path 173" d="M102.9,271.3h-33a5.335,5.335,0,0,0-5.3,5.3v4.7h43.6v-4.7A5.335,5.335,0,0,0,102.9,271.3Z" fill="none" stroke="#000" stroke-miterlimit="10" stroke-width="1.5"/>
  </g>
</svg>
