<svg xmlns="http://www.w3.org/2000/svg" xmlns:xlink="http://www.w3.org/1999/xlink" width="347" height="346" viewBox="0 0 347 346">
  <defs>
    <clipPath id="clip-path">
      <rect id="Rectangle_1" data-name="Rectangle 1" width="347" height="346" transform="translate(410 513)" fill="#fff" stroke="#707070" stroke-width="1"/>
    </clipPath>
    <linearGradient id="linear-gradient" x1="0.5" y1="-18.602" x2="0.5" y2="-17.605" gradientUnits="objectBoundingBox">
      <stop offset="0" stop-color="gray" stop-opacity="0.251"/>
      <stop offset="0.54" stop-color="gray" stop-opacity="0.122"/>
      <stop offset="1" stop-color="gray" stop-opacity="0.102"/>
    </linearGradient>
    <linearGradient id="linear-gradient-2" x1="0.501" y1="-35.643" x2="0.501" y2="-34.642" xlink:href="#linear-gradient"/>
  </defs>
  <g id="Mask_Group_1" data-name="Mask Group 1" transform="translate(-410 -513)" clip-path="url(#clip-path)">
    <path id="Path_69" data-name="Path 69" d="M296.729,171.757a5.109,5.109,0,1,0-5.109-5.109A5.109,5.109,0,0,0,296.729,171.757Z" transform="translate(410 453)" fill="#21d478" opacity="0.66"/>
    <path id="Path_71" data-name="Path 71" d="M58.52,295.27a6.85,6.85,0,1,0-6.86-6.84,6.85,6.85,0,0,0,6.86,6.84Z" transform="translate(410 453)" fill="#21d478" opacity="0.66"/>
    <g id="Group_4" data-name="Group 4" transform="translate(410 503)" opacity="0.4">
      <path id="Path_72" data-name="Path 72" d="M279.07,47.48a16.089,16.089,0,1,0-12.81,25.78h1a16.05,16.05,0,0,0,11.8-25.68Z" opacity="0.4" fill="url(#linear-gradient)"/>
    </g>
    <path id="Path_73" data-name="Path 73" d="M281.43,57.14a15.16,15.16,0,0,1-14.21,15.13h-1a15.165,15.165,0,1,1,15.17-15.13Z" transform="translate(410 503)" fill="#ea641e" opacity="0.2"/>
    <path id="Path_74" data-name="Path 74" d="M262.51,47.52a17.279,17.279,0,0,0-2.3,1.19A3.58,3.58,0,0,0,259,49.79a1.46,1.46,0,0,0,0,1.54,2.19,2.19,0,0,0,.78.49,2.07,2.07,0,0,0,.92.12,3.25,3.25,0,0,0,3.07-1l1.31-1.18c.45-.41.95-1,.76-1.53a1.22,1.22,0,0,0-.45-.53,1.29,1.29,0,0,0-.65-.24,4.6,4.6,0,0,0-3.26.57" transform="translate(410 503)" fill="#f55f44" opacity="0.1"/>
    <path id="Path_75" data-name="Path 75" d="M257.07,63.92a.8.8,0,1,0-.8-.8.8.8,0,0,0,.8.8Z" transform="translate(410 503)" fill="#f55f44" opacity="0.1"/>
    <path id="Path_76" data-name="Path 76" d="M273.3,61a2.93,2.93,0,1,0-2.93-2.93A2.93,2.93,0,0,0,273.3,61Z" transform="translate(410 503)" fill="#f55f44" opacity="0.1"/>
    <path id="Path_77" data-name="Path 77" d="M278.36,48a3.994,3.994,0,1,1-4.52-4,15.49,15.49,0,0,1,4.52,4Z" transform="translate(410 503)" fill="#f55f44" opacity="0.1"/>
    <path id="Path_78" data-name="Path 78" d="M278.66,65.88a15.15,15.15,0,0,1-11.44,6.4v-.63a7.14,7.14,0,0,1,1.06-3.79,7.24,7.24,0,0,1,6.78-3.4,7.14,7.14,0,0,1,3.67,1.42Z" transform="translate(410 503)" fill="#f55f44" opacity="0.1"/>
    <path id="Path_83" data-name="Path 83" d="M87.87,125.16a2.86,2.86,0,1,0-2.029-.834A2.86,2.86,0,0,0,87.87,125.16Z" transform="translate(410 453)" fill="#21d478" opacity="0.66"/>
    <path id="Path_84" data-name="Path 84" d="M281.4,260.47h-2.54v-2.54h-1v2.54h-2.55v1h2.55v2.54h1v-2.54h2.54Z" transform="translate(410 453)" fill="#21d478" opacity="0.66"/>
    <path id="Path_85" data-name="Path 85" d="M55.78,223.3H53.23v-2.55h-1v2.55H49.65v1H52.2v2.54h1V224.3h2.55Z" transform="translate(410 453)" fill="#ea641e" opacity="0.66"/>
    <g id="Group_7" data-name="Group 7" transform="translate(410 453)" opacity="0.4">
      <path id="Path_86" data-name="Path 86" d="M76.77,168.44a12,12,0,0,0-3.49-3.09A11.727,11.727,0,1,0,62.2,186a11.61,11.61,0,0,0,5.21,1.2h.74a11.7,11.7,0,0,0,8.6-18.73Z" opacity="0.4" fill="url(#linear-gradient-2)"/>
    </g>
    <path id="Path_87" data-name="Path 87" d="M78.5,175.51a11.1,11.1,0,0,1-10.4,11.07h-.7a11.09,11.09,0,1,1,5.6-20.7,11.39,11.39,0,0,1,3.3,2.92,11.06,11.06,0,0,1,2.24,6.71Z" transform="translate(410 453)" fill="#ea641e" opacity="0.2"/>
    <path id="Path_88" data-name="Path 88" d="M64.67,168.48a10.789,10.789,0,0,0-1.69.87,2.56,2.56,0,0,0-.88.79,1.007,1.007,0,0,0,0,1.12,1.54,1.54,0,0,0,.57.36,1.52,1.52,0,0,0,.67.09,2.3,2.3,0,0,0,1.22-.08,2.37,2.37,0,0,0,1-.67l1-.86c.33-.31.7-.71.56-1.12a1.015,1.015,0,0,0-.81-.57,3.31,3.31,0,0,0-2.38.43" transform="translate(410 453)" fill="#f55f44" opacity="0.1"/>
    <path id="Path_89" data-name="Path 89" d="M60.68,180.47a.59.59,0,1,0-.513-.585A.59.59,0,0,0,60.68,180.47Z" transform="translate(410 453)" fill="#f55f44" opacity="0.1"/>
    <path id="Path_90" data-name="Path 90" d="M72.56,178.33a2.14,2.14,0,1,0-1.52-.623A2.14,2.14,0,0,0,72.56,178.33Z" transform="translate(410 453)" fill="#f55f44" opacity="0.1"/>
    <path id="Path_91" data-name="Path 91" d="M76.25,168.85a2.82,2.82,0,0,1-.48,1.57,2.86,2.86,0,0,1-1.25,1.06A2.91,2.91,0,0,1,71.4,171a2.87,2.87,0,0,1-.87-1.39,2.865,2.865,0,0,1,.91-3.02,2.84,2.84,0,0,1,1.5-.66,11.12,11.12,0,0,1,3.31,2.92Z" transform="translate(410 453)" fill="#f55f44" opacity="0.1"/>
    <path id="Path_92" data-name="Path 92" d="M76.47,181.9a11.09,11.09,0,0,1-8.36,4.68v-.46a5.11,5.11,0,0,1,.78-2.77,5.26,5.26,0,0,1,7.63-1.45Z" transform="translate(410 453)" fill="#f55f44" opacity="0.1"/>
    <path id="Path_93" data-name="Path 93" d="M389.24,308.509A50.65,50.65,0,0,0,363.79,315c-10.232-7.913-27.549-8.667-39.09-1.7-7.553-4.508-17.57-6.408-27.319-5.183s-18.212,5.448-23.081,11.516a18.212,18.212,0,0,0-13.79.524c-4.1,1.967-6.308,5.374-5.73,8.843q-1.24-.1-2.49-.1a27.63,27.63,0,0,0-14,3.624,23.318,23.318,0,0,0-11.94-3.1,15.257,15.257,0,0,0-1.71.063V202.4a17.449,17.449,0,0,1,3.24-3.23h0c3.331-2.088,4.484-5.407,2.9-8.341s-5.585-4.873-10.046-4.873-8.459,1.939-10.046,4.873-.435,6.253,2.9,8.341h0a17.213,17.213,0,0,1,3.13,3.075V331.324a18.844,18.844,0,0,0-3.94,2.294c-8.532-5-20.637-5.638-30.13-1.583a30.032,30.032,0,0,0-4-1.407V213.221c1.76-4.926,7.28-8.951,7.28-8.951h0c5.272-3.3,7.1-8.55,4.589-13.192s-8.832-7.709-15.889-7.709-13.38,3.068-15.889,7.709-.683,9.891,4.589,13.192v.042s5.84,4.279,7.42,9.359V329.417c-.52,0-1-.035-1.56-.035a33.157,33.157,0,0,0-16.64,4.222,22.448,22.448,0,0,0-13.61-4.222,24.727,24.727,0,0,0-7.36,1.1V202.4a17.322,17.322,0,0,1,3.25-3.23h0c3.334-2.087,4.489-5.407,2.9-8.342s-5.585-4.875-10.048-4.875-8.461,1.94-10.048,4.875-.432,6.255,2.9,8.342h0a17.213,17.213,0,0,1,3.13,3.075V330.838c-8.087-3.227-18.2-2.45-25.11,1.928a3.467,3.467,0,0,0,.13-.908,4.072,4.072,0,0,0-1.965-3.287A8.2,8.2,0,0,0,92,327.263a9.372,9.372,0,0,0-1.49.127c-.41-2.671-2.657-5.031-6.012-6.313a16.048,16.048,0,0,0-10.8-.112c-4.471-6.513-12.973-11.2-23.028-12.7s-20.53.358-28.372,5.033A35.66,35.66,0,0,0,4,308.509c-7.931,0-15.494,2.353-20.82,6.488a50.65,50.65,0,0,0-25.45-6.488c-21.933,0-39.719,12.5-39.73,27.937a19.463,19.463,0,0,0,.34,3.589h510.3a19.46,19.46,0,0,0,.34-3.589C428.969,321.01,411.177,308.5,389.24,308.509Z" transform="translate(410 518.965)" fill="none" stroke="#c2c2c2" stroke-miterlimit="10" stroke-width="2"/>
    <path id="Path_94" data-name="Path 94" d="M132.08,195.68c0-2.47-2-6.4-4.48-6.4s-4.49,3.93-4.49,6.4,3.81,7.41,4.49,7.41C128.12,203.09,132.08,198.15,132.08,195.68Z" transform="translate(410 515)" fill="rgba(255,213,1,0.33)"/>
    <path id="Path_95" data-name="Path 95" d="M225.19,195.68c0-2.47-2-6.4-4.49-6.4s-4.48,3.93-4.48,6.4,3.81,7.41,4.48,7.41S225.19,198.15,225.19,195.68Z" transform="translate(410 515)" fill="rgba(255,213,1,0.33)"/>
    <path id="Path_96" data-name="Path 96" d="M128.11,166.21l31.62-27.8V162l-29.51,13.9Z" transform="translate(410 515)" stroke="#000" stroke-width="1.5"/>
    <path id="Path_97" data-name="Path 97" d="M134.48,189.08H120.75l-2.9-53.82a5.09,5.09,0,0,1,0-1.17c.48-4.45,4.67-19,9.76-19h0c5.09,0,9.27,14.57,9.76,19a6.528,6.528,0,0,1,0,1.17Z" transform="translate(410 515)" fill="#fff" stroke="#1a2e35" stroke-miterlimit="10" stroke-width="1"/>
    <path id="Path_98" data-name="Path 98" d="M119.76,126.3h15.72c-1.79-5.41-4.64-11.23-7.86-11.23S121.54,120.89,119.76,126.3Z" transform="translate(410 515)" stroke="#000" stroke-width="1.5"/>
    <path id="Path_99" data-name="Path 99" d="M120.14,177.73l.61,11.35h13.73l.61-11.35Z" transform="translate(410 515)" stroke="#000" stroke-width="1.5"/>
    <path id="Path_100" data-name="Path 100" d="M220.77,166.21l-31.62-27.8V162l29.51,13.9Z" transform="translate(410 515)" stroke="#000" stroke-width="1.5"/>
    <path id="Path_101" data-name="Path 101" d="M214.4,189.08h13.73l2.9-53.82a5.72,5.72,0,0,0,0-1.17c-.49-4.45-4.67-19-9.77-19h0c-5.09,0-9.27,14.57-9.76,19a5.718,5.718,0,0,0,0,1.17Z" transform="translate(410 515)" fill="#fff" stroke="#1a2e35" stroke-miterlimit="10" stroke-width="1"/>
    <path id="Path_102" data-name="Path 102" d="M228.74,177.73l-.61,11.35H214.4l-.61-11.35Z" transform="translate(410 515)" stroke="#000" stroke-width="1.5"/>
    <path id="Path_103" data-name="Path 103" d="M213.4,126.3h15.73c-1.79-5.41-4.65-11.23-7.87-11.23S215.19,120.89,213.4,126.3Z" transform="translate(410 515)" stroke="#000" stroke-width="1.5"/>
    <path id="Path_104" data-name="Path 104" d="M184.65,196.06a10.05,10.05,0,1,0-20.1,0c0,5.54,8.54,16.6,10,16.6C175.78,212.66,184.65,201.6,184.65,196.06Z" transform="translate(410 515)" fill="rgba(255,213,1,0.33)"/>
    <path id="Path_105" data-name="Path 105" d="M192.63,170.13h-36l-7.6-116.5a14.9,14.9,0,0,1,0-3.06C150.35,38.91,161.31.76,174.65.76h0C188,.76,199,38.91,200.21,50.57a15.64,15.64,0,0,1,0,3.06Z" transform="translate(410 515)" fill="#fff" stroke="#000" stroke-width="1.5"/>
    <path id="Path_106" data-name="Path 106" d="M174.7,141.37h0A15.7,15.7,0,0,1,159,125.68V60.29A15.71,15.71,0,0,1,174.7,44.6h0a15.71,15.71,0,0,1,15.71,15.69v65.39A15.7,15.7,0,0,1,174.7,141.37Z" transform="translate(410 515)" fill="none" stroke="#000" stroke-miterlimit="10" stroke-width="1"/>
    <path id="Path_107" data-name="Path 107" d="M187.25,186.85H161.98l-5.31-17.47h35.96Z" transform="translate(410 515)" stroke="#000" stroke-width="1.5"/>
    <ellipse id="Ellipse_1" data-name="Ellipse 1" cx="10.98" cy="10.96" rx="10.98" ry="10.96" transform="translate(573.654 566.678) rotate(-0.06)"/>
    <ellipse id="Ellipse_2" data-name="Ellipse 2" cx="10.96" cy="10.98" rx="10.96" ry="10.98" transform="translate(573.652 589.896) rotate(-89.94)" fill="#fff" stroke="#000" stroke-miterlimit="10" stroke-width="1"/>
    <ellipse id="Ellipse_3" data-name="Ellipse 3" cx="8.18" cy="8.19" rx="8.18" ry="8.19" transform="translate(576.443 587.118) rotate(-89.92)" fill="#fff" stroke="#000" stroke-width="1"/>
    <ellipse id="Ellipse_4" data-name="Ellipse 4" cx="10.98" cy="10.96" rx="10.98" ry="10.96" transform="translate(573.67 593.75)"/>
    <ellipse id="Ellipse_5" data-name="Ellipse 5" cx="10.98" cy="10.96" rx="10.98" ry="10.96" transform="translate(573.67 595.07)" fill="#fff" stroke="#000" stroke-miterlimit="10" stroke-width="1"/>
    <ellipse id="Ellipse_6" data-name="Ellipse 6" cx="8.19" cy="8.18" rx="8.19" ry="8.18" transform="translate(576.46 597.85)" fill="#fff" stroke="#000" stroke-width="1"/>
    <ellipse id="Ellipse_7" data-name="Ellipse 7" cx="10.98" cy="10.96" rx="10.98" ry="10.96" transform="translate(573.661 620.838) rotate(-0.06)"/>
    <ellipse id="Ellipse_8" data-name="Ellipse 8" cx="10.96" cy="10.98" rx="10.96" ry="10.98" transform="translate(573.662 644.063) rotate(-89.94)" fill="#fff" stroke="#000" stroke-miterlimit="10" stroke-width="1"/>
    <ellipse id="Ellipse_9" data-name="Ellipse 9" cx="8.18" cy="8.19" rx="8.18" ry="8.19" transform="translate(576.453 641.284) rotate(-89.92)" fill="#fff" stroke="#000" stroke-width="1"/>
    <path id="Path_108" data-name="Path 108" d="M156.46,23.53h36.38C188.24,11.33,181.79,0,174.65,0h0C167.5,0,161.05,11.33,156.46,23.53Z" transform="translate(410 515)" stroke="#000" stroke-width="1.5"/>
    <line id="Line_1" data-name="Line 1" x2="0.04" y2="0.69" transform="translate(560.6 646.8)" fill="#fbfbfb"/>
    <line id="Line_2" data-name="Line 2" x2="0.03" y2="0.51" transform="translate(560.61 646.98)" fill="#96a8ad"/>
    <line id="Line_3" data-name="Line 3" x2="0.01" y2="0.22" transform="translate(560.63 647.27)" fill="#617c82"/>
  </g>
</svg>
