<svg width="179" height="41" viewBox="0 0 179 41" fill="none" xmlns="http://www.w3.org/2000/svg">
<g clip-path="url(#clip0)">
<path d="M14.3869 2.95338C13.8816 2.65737 10.8709 0.928013 10.0722 0.462672C9.54665 0.157473 8.94923 -0.00205905 8.3415 0.00051904C7.73378 0.00309713 7.13773 0.167692 6.6148 0.477338C5.82812 0.944013 2.84807 2.65471 2.34406 2.94405C1.82383 3.24346 1.39175 3.67477 1.09141 4.19446C0.791064 4.71415 0.63307 5.30386 0.633362 5.9041V10.8775C0.63406 11.4699 0.788967 12.0519 1.08284 12.5662C1.37671 13.0805 1.79943 13.5095 2.30939 13.8109C2.81873 14.1122 5.84145 15.8469 6.64013 16.3123C7.1619 16.6156 7.75465 16.7753 8.35816 16.7753C8.96167 16.7753 9.55442 16.6156 10.0762 16.3123C10.8762 15.8469 13.8616 14.1242 14.3616 13.8376C14.8838 13.5387 15.3178 13.1072 15.6196 12.5867C15.9214 12.0662 16.0803 11.4752 16.0803 10.8735V5.90143C16.0804 5.30489 15.9241 4.71876 15.6269 4.20148C15.3298 3.6842 14.9023 3.25386 14.3869 2.95338ZM12.2602 9.64549C12.2604 9.94944 12.1802 10.248 12.0277 10.511C11.8753 10.7739 11.6561 10.9919 11.3922 11.1428C11.1389 11.2868 9.63085 12.1575 9.22684 12.3935C8.96334 12.5457 8.66443 12.6258 8.36016 12.6258C8.05589 12.6258 7.75699 12.5457 7.49348 12.3935C7.09347 12.1575 5.56278 11.2829 5.30544 11.1295C5.04734 10.9769 4.83349 10.7597 4.685 10.4992C4.53652 10.2387 4.45854 9.94399 4.45876 9.64416V7.13212C4.45868 6.82901 4.5385 6.53124 4.69019 6.26883C4.84188 6.00641 5.06008 5.78862 5.32278 5.63742C5.57611 5.49076 7.08281 4.62674 7.48015 4.39074C7.74468 4.23465 8.04593 4.15166 8.35308 4.15025C8.66022 4.14884 8.96223 4.22908 9.22818 4.38274C9.62818 4.61874 11.1522 5.49076 11.4082 5.64142C11.6684 5.79335 11.8842 6.01081 12.0342 6.27212C12.1841 6.53344 12.263 6.82949 12.2629 7.13078C12.2629 7.62679 12.2629 9.14815 12.2629 9.64549H12.2602Z" fill="#FF8000"/>
<path d="M16.7803 23.2297V40.01H0V23.2297H16.7803ZM3.7334 26.9591V36.2806H13.0509V26.9591H3.7334Z" fill="#FFD501"/>
<path d="M31.6605 23.2297C33.3197 23.23 34.9415 23.7222 36.321 24.6442C37.7004 25.5661 38.7755 26.8764 39.4103 28.4093C40.0451 29.9422 40.2112 31.629 39.8874 33.2562C39.5637 34.8835 38.7647 36.3783 37.5914 37.5515C36.4182 38.7247 34.9235 39.5237 33.2962 39.8474C31.6689 40.1712 29.9822 40.0051 28.4493 39.3703C26.9164 38.7355 25.6061 37.6604 24.6842 36.281C23.7622 34.9015 23.27 33.2797 23.2697 31.6205C23.2695 30.5186 23.4865 29.4274 23.9081 28.4093C24.3297 27.3912 24.9477 26.4661 25.7269 25.687C26.5061 24.9078 27.4312 24.2897 28.4493 23.8681C29.4674 23.4465 30.5586 23.2296 31.6605 23.2297ZM31.6605 26.5845C30.665 26.5845 29.6918 26.8797 28.8641 27.4327C28.0364 27.9858 27.3912 28.7719 27.0102 29.6917C26.6293 30.6114 26.5296 31.6235 26.7238 32.5998C26.918 33.5762 27.3974 34.4731 28.1014 35.177C28.8053 35.881 29.7022 36.3604 30.6786 36.5546C31.6549 36.7488 32.667 36.6491 33.5867 36.2682C34.5065 35.8872 35.2926 35.242 35.8457 34.4143C36.3987 33.5866 36.6939 32.6134 36.6939 31.6179C36.6939 30.2829 36.1636 29.0027 35.2197 28.0587C34.2757 27.1148 32.9955 26.5845 31.6605 26.5845Z" fill="#1271D8"/>
<path d="M40.982 16.679H21.8083L31.3952 0.00134277L40.982 16.679ZM27.5818 13.3456H35.2099L31.3965 6.71079L27.5818 13.3456Z" fill="#00D478"/>
<path d="M76.3 11.0469C76.1878 11.3004 76.0079 11.5182 75.78 11.6762C75.5682 11.8023 75.325 11.8656 75.0787 11.8589C74.7506 11.8401 74.4341 11.7313 74.164 11.5442C73.8253 11.3344 73.4253 11.1006 72.964 10.8429C72.4474 10.5611 71.9065 10.3263 71.3479 10.1415C70.642 9.91799 69.9042 9.81169 69.1639 9.82684C68.4931 9.81435 67.8246 9.90703 67.1825 10.1015C66.6634 10.2613 66.1803 10.5203 65.7598 10.8642C65.3818 11.1781 65.0853 11.5788 64.8958 12.0322C64.7024 12.506 64.6058 13.0138 64.6118 13.5256C64.5889 14.1545 64.795 14.7704 65.1918 15.2589C65.6187 15.7513 66.1407 16.1522 66.7265 16.4376C67.4257 16.788 68.1526 17.0801 68.8999 17.311C69.7123 17.5687 70.5417 17.843 71.3879 18.1336C72.2356 18.4255 73.0663 18.7647 73.876 19.1497C74.671 19.5249 75.4039 20.0195 76.0493 20.6163C76.7015 21.2269 77.2235 21.963 77.584 22.7804C77.9951 23.7637 78.1924 24.8231 78.1627 25.8884C78.1732 27.1646 77.9424 28.4313 77.4827 29.6218C77.0414 30.7602 76.3628 31.7915 75.492 32.6472C74.5748 33.5354 73.4859 34.2268 72.2919 34.6792C70.9093 35.1952 69.4421 35.4466 67.9665 35.4206C67.0388 35.4211 66.1133 35.3291 65.2038 35.1459C64.311 34.9673 63.4369 34.7053 62.5931 34.3632C61.7768 34.0336 60.9945 33.6254 60.2571 33.1446C59.5548 32.6835 58.9052 32.147 58.3197 31.5445L59.9037 28.9232C60.0517 28.7336 60.2323 28.572 60.4371 28.4458C60.648 28.3167 60.8911 28.2497 61.1384 28.2525C61.5386 28.2747 61.922 28.4205 62.2358 28.6698C62.6287 28.948 63.0927 29.2565 63.6278 29.5952C64.2256 29.965 64.8585 30.2749 65.5172 30.5205C66.3547 30.8174 67.2395 30.9589 68.1279 30.9379C69.4278 31.0204 70.7134 30.6265 71.7439 29.8298C72.1809 29.4288 72.5226 28.935 72.7441 28.3848C72.9656 27.8345 73.0612 27.2417 73.024 26.6498C73.0537 25.9722 72.8494 25.3051 72.4453 24.7604C72.0264 24.247 71.5033 23.8285 70.9106 23.5324C70.2167 23.1779 69.4885 22.8951 68.7372 22.6884C67.9248 22.4582 67.0985 22.2075 66.2585 21.9364C65.4128 21.6633 64.585 21.3378 63.7798 20.9617C62.9787 20.5903 62.2444 20.0894 61.6064 19.479C60.9434 18.8307 60.421 18.0527 60.0717 17.1936C59.6564 16.1156 59.4597 14.9657 59.4931 13.8109C59.4965 12.7198 59.7205 11.6407 60.1518 10.6384C60.583 9.63617 61.2125 8.73149 62.0024 7.97881C62.876 7.15903 63.9009 6.51729 65.0198 6.08944C66.3237 5.59551 67.7098 5.35432 69.1039 5.37876C70.7396 5.36122 72.3653 5.63668 73.904 6.19211C75.2903 6.68899 76.5606 7.46346 77.6374 8.46815L76.3 11.0469ZM88.0042 24.7444V35.0859H82.5374V5.70277H92.1096C93.8351 5.66913 95.5553 5.9021 97.2097 6.39345C98.5163 6.78299 99.7274 7.44054 100.766 8.32414C101.687 9.13066 102.398 10.1488 102.838 11.2909C103.745 13.7766 103.731 16.5051 102.799 18.9817C102.335 20.1526 101.605 21.1994 100.666 22.039C99.6309 22.9415 98.42 23.6193 97.1097 24.0297C95.4922 24.5324 93.8045 24.7723 92.111 24.7404L88.0042 24.7444ZM88.0042 20.4777H92.1083C92.9967 20.494 93.8819 20.3666 94.7296 20.1003C95.4184 19.883 96.0502 19.515 96.579 19.023C97.0719 18.5482 97.4476 17.9653 97.6764 17.3203C97.9285 16.599 98.0522 15.839 98.0417 15.0749C98.0519 14.3474 97.928 13.6242 97.6764 12.9416C97.4435 12.321 97.0675 11.7642 96.579 11.3162C96.0447 10.8423 95.413 10.4914 94.7283 10.2882C93.8778 10.0365 92.9937 9.9169 92.1069 9.9335H88.0042V20.4777ZM130.428 35.0859H126.201C125.783 35.1035 125.371 34.9784 125.033 34.7312C124.733 34.5043 124.502 34.1981 124.366 33.8472L122.174 27.8471H110.002L107.81 33.8472C107.681 34.1864 107.46 34.4823 107.17 34.7006C106.837 34.9635 106.423 35.1004 105.999 35.0873H101.752L113.293 5.7081H118.879L130.428 35.0859ZM111.41 23.9924H120.777L117.201 14.2109C117.038 13.778 116.86 13.2664 116.667 12.6762C116.474 12.086 116.282 11.446 116.09 10.7562C115.901 11.4469 115.714 12.0904 115.531 12.6869C115.348 13.2833 115.17 13.8047 114.998 14.2509L111.41 23.9924ZM152.611 28.1578C152.756 28.1572 152.901 28.1877 153.034 28.2473C153.167 28.3068 153.286 28.3941 153.383 28.5031L155.537 30.8392C154.361 32.3036 152.853 33.4668 151.137 34.2326C149.156 35.0652 147.019 35.467 144.871 35.4113C142.854 35.4429 140.853 35.0626 138.989 34.2939C137.299 33.5847 135.779 32.5254 134.529 31.1859C133.268 29.8118 132.304 28.1934 131.694 26.4311C131.021 24.4912 130.688 22.4496 130.709 20.3963C130.684 18.3235 131.057 16.2651 131.806 14.3322C132.495 12.5493 133.55 10.9303 134.903 9.57959C136.255 8.22885 137.876 7.17623 139.66 6.48945C141.612 5.7323 143.691 5.35662 145.785 5.38276C147.742 5.34127 149.687 5.69735 151.503 6.42945C153.064 7.07997 154.488 8.02109 155.699 9.20283L153.871 11.7362C153.759 11.9021 153.617 12.0463 153.453 12.1615C153.244 12.2944 152.999 12.3583 152.752 12.3442C152.402 12.3301 152.067 12.2018 151.797 11.9789C151.401 11.6894 150.987 11.4249 150.557 11.1869C149.952 10.859 149.316 10.5937 148.657 10.3948C146.434 9.80529 144.081 9.92936 141.932 10.7495C140.799 11.2131 139.78 11.9168 138.945 12.8122C138.082 13.7563 137.418 14.8652 136.994 16.0723C136.509 17.4591 136.272 18.9205 136.293 20.3897C136.268 21.8891 136.506 23.3814 136.994 24.7991C137.409 25.9965 138.055 27.1009 138.894 28.0498C139.679 28.9196 140.642 29.6092 141.718 30.0712C142.823 30.5431 144.013 30.7819 145.215 30.7725C145.89 30.777 146.566 30.7364 147.236 30.6512C147.803 30.5782 148.361 30.4487 148.903 30.2645C149.407 30.0905 149.89 29.8625 150.345 29.5845C150.827 29.2856 151.28 28.9419 151.697 28.5578C151.825 28.4409 151.968 28.3418 152.123 28.2631C152.274 28.1888 152.442 28.1514 152.611 28.1538V28.1578ZM178.192 5.70277V10.0495H165.171V18.1963H175.438V22.4017H165.171V30.7125H178.195V35.0806H159.661V5.70277H178.192Z" fill="#0F0F0F"/>
</g>
<defs>
<clipPath id="clip0">
<rect width="178.194" height="40.01" fill="white"/>
</clipPath>
</defs>
</svg>
